<?xml version="1.0" encoding="utf-8" standalone="no"?>
<!DOCTYPE svg PUBLIC "-//W3C//DTD SVG 1.1//EN"
  "http://www.w3.org/Graphics/SVG/1.1/DTD/svg11.dtd">
<!-- Created with matplotlib (http://matplotlib.org/) -->
<svg height="504pt" version="1.1" viewBox="0 0 720 504" width="720pt" xmlns="http://www.w3.org/2000/svg" xmlns:xlink="http://www.w3.org/1999/xlink">
 <defs>
  <style type="text/css">
*{stroke-linecap:butt;stroke-linejoin:round;stroke-miterlimit:100000;}
  </style>
 </defs>
 <g id="figure_1">
  <g id="patch_1">
   <path d="M 0 504 
L 720 504 
L 720 0 
L 0 0 
L 0 504 
z
" style="fill:none;"/>
  </g>
  <g id="axes_1">
   <g id="patch_2">
    <path d="M 90 441 
L 648 441 
L 648 50.4 
L 90 50.4 
L 90 441 
z
" style="fill:none;"/>
   </g>
   <g id="matplotlib.axis_1">
    <g id="xtick_1">
     <g id="line2d_1">
      <defs>
       <path d="M 0 0 
L 0 0 
" id="m31235fbd9f" style="stroke:#262626;"/>
      </defs>
      <g>
       <use style="fill:#262626;stroke:#262626;" x="92.8181818182" xlink:href="#m31235fbd9f" y="441.0"/>
      </g>
     </g>
     <g id="line2d_2">
      <g>
       <use style="fill:#262626;stroke:#262626;" x="92.8181818182" xlink:href="#m31235fbd9f" y="50.4"/>
      </g>
     </g>
     <g id="text_1">
      <!-- 0 -->
      <defs>
       <path d="M 51.703125 34.421875 
Q 51.703125 24.515625 49.828125 17.75 
Q 47.953125 10.984375 44.703125 6.8125 
Q 41.453125 2.640625 37.0625 0.828125 
Q 32.671875 -0.984375 27.6875 -0.984375 
Q 22.65625 -0.984375 18.3125 0.828125 
Q 13.96875 2.640625 10.765625 6.78125 
Q 7.5625 10.9375 5.734375 17.703125 
Q 3.90625 24.46875 3.90625 34.421875 
Q 3.90625 44.828125 5.734375 51.640625 
Q 7.5625 58.453125 10.78125 62.5 
Q 14.015625 66.546875 18.40625 68.1875 
Q 22.796875 69.828125 27.984375 69.828125 
Q 32.90625 69.828125 37.21875 68.1875 
Q 41.546875 66.546875 44.765625 62.5 
Q 48 58.453125 49.84375 51.640625 
Q 51.703125 44.828125 51.703125 34.421875 
M 42.78125 34.421875 
Q 42.78125 42.625 41.796875 48.0625 
Q 40.828125 53.515625 38.921875 56.765625 
Q 37.015625 60.015625 34.25 61.359375 
Q 31.5 62.703125 27.984375 62.703125 
Q 24.265625 62.703125 21.4375 61.328125 
Q 18.609375 59.96875 16.671875 56.71875 
Q 14.75 53.46875 13.765625 48.015625 
Q 12.796875 42.578125 12.796875 34.421875 
Q 12.796875 26.515625 13.796875 21.09375 
Q 14.796875 15.671875 16.71875 12.375 
Q 18.65625 9.078125 21.4375 7.640625 
Q 24.21875 6.203125 27.78125 6.203125 
Q 31.25 6.203125 34.03125 7.640625 
Q 36.8125 9.078125 38.734375 12.375 
Q 40.671875 15.671875 41.71875 21.09375 
Q 42.78125 26.515625 42.78125 34.421875 
" id="LiberationSans-30"/>
      </defs>
      <g style="fill:#262626;" transform="translate(90.0377130682 455.246875)scale(0.1 -0.1)">
       <use xlink:href="#LiberationSans-30"/>
      </g>
     </g>
    </g>
    <g id="xtick_2">
     <g id="line2d_3">
      <g>
       <use style="fill:#262626;stroke:#262626;" x="130.393939394" xlink:href="#m31235fbd9f" y="441.0"/>
      </g>
     </g>
     <g id="line2d_4">
      <g>
       <use style="fill:#262626;stroke:#262626;" x="130.393939394" xlink:href="#m31235fbd9f" y="50.4"/>
      </g>
     </g>
     <g id="text_2">
      <!-- 10 -->
      <defs>
       <path d="M 7.625 0 
L 7.625 7.46875 
L 25.140625 7.46875 
L 25.140625 60.40625 
L 9.625 49.3125 
L 9.625 57.625 
L 25.875 68.796875 
L 33.984375 68.796875 
L 33.984375 7.46875 
L 50.734375 7.46875 
L 50.734375 0 
z
" id="LiberationSans-31"/>
      </defs>
      <g style="fill:#262626;" transform="translate(124.833001894 455.246875)scale(0.1 -0.1)">
       <use xlink:href="#LiberationSans-31"/>
       <use x="55.615234375" xlink:href="#LiberationSans-30"/>
      </g>
     </g>
    </g>
    <g id="xtick_3">
     <g id="line2d_5">
      <g>
       <use style="fill:#262626;stroke:#262626;" x="167.96969697" xlink:href="#m31235fbd9f" y="441.0"/>
      </g>
     </g>
     <g id="line2d_6">
      <g>
       <use style="fill:#262626;stroke:#262626;" x="167.96969697" xlink:href="#m31235fbd9f" y="50.4"/>
      </g>
     </g>
     <g id="text_3">
      <!-- 20 -->
      <defs>
       <path d="M 5.03125 0 
L 5.03125 6.203125 
Q 7.515625 11.921875 11.109375 16.28125 
Q 14.703125 20.65625 18.65625 24.1875 
Q 22.609375 27.734375 26.484375 30.765625 
Q 30.375 33.796875 33.5 36.8125 
Q 36.625 39.84375 38.546875 43.15625 
Q 40.484375 46.484375 40.484375 50.6875 
Q 40.484375 53.609375 39.59375 55.828125 
Q 38.71875 58.0625 37.0625 59.5625 
Q 35.40625 61.078125 33.078125 61.828125 
Q 30.765625 62.59375 27.9375 62.59375 
Q 25.296875 62.59375 22.96875 61.859375 
Q 20.65625 61.140625 18.84375 59.671875 
Q 17.046875 58.203125 15.890625 56.03125 
Q 14.75 53.859375 14.40625 50.984375 
L 5.421875 51.8125 
Q 5.859375 55.515625 7.46875 58.78125 
Q 9.078125 62.0625 11.90625 64.53125 
Q 14.75 67 18.71875 68.40625 
Q 22.703125 69.828125 27.9375 69.828125 
Q 33.0625 69.828125 37.0625 68.609375 
Q 41.0625 67.390625 43.8125 64.984375 
Q 46.578125 62.59375 48.046875 59.078125 
Q 49.515625 55.5625 49.515625 50.984375 
Q 49.515625 47.515625 48.265625 44.390625 
Q 47.015625 41.265625 44.9375 38.421875 
Q 42.875 35.59375 40.140625 32.953125 
Q 37.40625 30.328125 34.421875 27.8125 
Q 31.453125 25.296875 28.421875 22.828125 
Q 25.390625 20.359375 22.71875 17.859375 
Q 20.0625 15.375 17.96875 12.8125 
Q 15.875 10.25 14.703125 7.46875 
L 50.59375 7.46875 
L 50.59375 0 
z
" id="LiberationSans-32"/>
      </defs>
      <g style="fill:#262626;" transform="translate(162.40875947 455.246875)scale(0.1 -0.1)">
       <use xlink:href="#LiberationSans-32"/>
       <use x="55.615234375" xlink:href="#LiberationSans-30"/>
      </g>
     </g>
    </g>
    <g id="xtick_4">
     <g id="line2d_7">
      <g>
       <use style="fill:#262626;stroke:#262626;" x="205.545454545" xlink:href="#m31235fbd9f" y="441.0"/>
      </g>
     </g>
     <g id="line2d_8">
      <g>
       <use style="fill:#262626;stroke:#262626;" x="205.545454545" xlink:href="#m31235fbd9f" y="50.4"/>
      </g>
     </g>
     <g id="text_4">
      <!-- 30 -->
      <defs>
       <path d="M 51.21875 19 
Q 51.21875 14.265625 49.671875 10.546875 
Q 48.140625 6.84375 45.1875 4.265625 
Q 42.234375 1.703125 37.859375 0.359375 
Q 33.5 -0.984375 27.875 -0.984375 
Q 21.484375 -0.984375 17.109375 0.609375 
Q 12.75 2.203125 9.90625 4.8125 
Q 7.078125 7.421875 5.65625 10.765625 
Q 4.25 14.109375 3.8125 17.671875 
L 12.890625 18.5 
Q 13.28125 15.765625 14.328125 13.515625 
Q 15.375 11.28125 17.1875 9.671875 
Q 19 8.0625 21.625 7.171875 
Q 24.265625 6.296875 27.875 6.296875 
Q 34.515625 6.296875 38.296875 9.5625 
Q 42.09375 12.84375 42.09375 19.28125 
Q 42.09375 23.09375 40.40625 25.40625 
Q 38.71875 27.734375 36.203125 29.03125 
Q 33.6875 30.328125 30.734375 30.765625 
Q 27.78125 31.203125 25.296875 31.203125 
L 20.3125 31.203125 
L 20.3125 38.8125 
L 25.09375 38.8125 
Q 27.59375 38.8125 30.265625 39.328125 
Q 32.953125 39.84375 35.171875 41.1875 
Q 37.40625 42.53125 38.84375 44.828125 
Q 40.28125 47.125 40.28125 50.6875 
Q 40.28125 56.203125 37.03125 59.390625 
Q 33.796875 62.59375 27.390625 62.59375 
Q 21.578125 62.59375 17.984375 59.609375 
Q 14.40625 56.640625 13.8125 51.21875 
L 4.984375 51.90625 
Q 5.515625 56.453125 7.46875 59.8125 
Q 9.421875 63.1875 12.421875 65.40625 
Q 15.4375 67.625 19.28125 68.71875 
Q 23.140625 69.828125 27.484375 69.828125 
Q 33.25 69.828125 37.390625 68.375 
Q 41.546875 66.9375 44.1875 64.46875 
Q 46.828125 62.015625 48.0625 58.6875 
Q 49.3125 55.375 49.3125 51.609375 
Q 49.3125 48.578125 48.484375 45.9375 
Q 47.65625 43.3125 45.890625 41.203125 
Q 44.140625 39.109375 41.421875 37.59375 
Q 38.71875 36.078125 34.90625 35.296875 
L 34.90625 35.109375 
Q 39.0625 34.671875 42.140625 33.21875 
Q 45.21875 31.78125 47.21875 29.625 
Q 49.21875 27.484375 50.21875 24.75 
Q 51.21875 22.015625 51.21875 19 
" id="LiberationSans-33"/>
      </defs>
      <g style="fill:#262626;" transform="translate(199.984517045 455.246875)scale(0.1 -0.1)">
       <use xlink:href="#LiberationSans-33"/>
       <use x="55.615234375" xlink:href="#LiberationSans-30"/>
      </g>
     </g>
    </g>
    <g id="xtick_5">
     <g id="line2d_9">
      <g>
       <use style="fill:#262626;stroke:#262626;" x="243.121212121" xlink:href="#m31235fbd9f" y="441.0"/>
      </g>
     </g>
     <g id="line2d_10">
      <g>
       <use style="fill:#262626;stroke:#262626;" x="243.121212121" xlink:href="#m31235fbd9f" y="50.4"/>
      </g>
     </g>
     <g id="text_5">
      <!-- 40 -->
      <defs>
       <path d="M 43.015625 15.578125 
L 43.015625 0 
L 34.71875 0 
L 34.71875 15.578125 
L 2.296875 15.578125 
L 2.296875 22.40625 
L 33.796875 68.796875 
L 43.015625 68.796875 
L 43.015625 22.515625 
L 52.6875 22.515625 
L 52.6875 15.578125 
z
M 34.71875 58.890625 
Q 34.625 58.640625 34.234375 57.9375 
Q 33.84375 57.234375 33.34375 56.34375 
Q 32.859375 55.46875 32.34375 54.5625 
Q 31.84375 53.65625 31.453125 53.078125 
L 13.8125 27.09375 
Q 13.578125 26.703125 13.109375 26.0625 
Q 12.640625 25.4375 12.15625 24.78125 
Q 11.671875 24.125 11.171875 23.484375 
Q 10.6875 22.859375 10.40625 22.515625 
L 34.71875 22.515625 
z
" id="LiberationSans-34"/>
      </defs>
      <g style="fill:#262626;" transform="translate(237.560274621 455.246875)scale(0.1 -0.1)">
       <use xlink:href="#LiberationSans-34"/>
       <use x="55.615234375" xlink:href="#LiberationSans-30"/>
      </g>
     </g>
    </g>
    <g id="xtick_6">
     <g id="line2d_11">
      <g>
       <use style="fill:#262626;stroke:#262626;" x="280.696969697" xlink:href="#m31235fbd9f" y="441.0"/>
      </g>
     </g>
     <g id="line2d_12">
      <g>
       <use style="fill:#262626;stroke:#262626;" x="280.696969697" xlink:href="#m31235fbd9f" y="50.4"/>
      </g>
     </g>
     <g id="text_6">
      <!-- 50 -->
      <defs>
       <path d="M 51.421875 22.40625 
Q 51.421875 17.234375 49.859375 12.9375 
Q 48.296875 8.640625 45.21875 5.53125 
Q 42.140625 2.4375 37.578125 0.71875 
Q 33.015625 -0.984375 27 -0.984375 
Q 21.578125 -0.984375 17.546875 0.28125 
Q 13.53125 1.5625 10.734375 3.78125 
Q 7.953125 6 6.3125 8.984375 
Q 4.6875 11.96875 4 15.375 
L 12.890625 16.40625 
Q 13.421875 14.453125 14.390625 12.625 
Q 15.375 10.796875 17.0625 9.34375 
Q 18.75 7.90625 21.21875 7.046875 
Q 23.6875 6.203125 27.203125 6.203125 
Q 30.609375 6.203125 33.390625 7.25 
Q 36.1875 8.296875 38.15625 10.34375 
Q 40.140625 12.40625 41.203125 15.375 
Q 42.28125 18.359375 42.28125 22.21875 
Q 42.28125 25.390625 41.25 28.046875 
Q 40.234375 30.71875 38.328125 32.640625 
Q 36.421875 34.578125 33.65625 35.640625 
Q 30.90625 36.71875 27.390625 36.71875 
Q 25.203125 36.71875 23.34375 36.328125 
Q 21.484375 35.9375 19.890625 35.25 
Q 18.3125 34.578125 17.015625 33.671875 
Q 15.71875 32.765625 14.59375 31.78125 
L 6 31.78125 
L 8.296875 68.796875 
L 47.40625 68.796875 
L 47.40625 61.328125 
L 16.3125 61.328125 
L 14.984375 39.5 
Q 17.328125 41.3125 20.84375 42.59375 
Q 24.359375 43.890625 29.203125 43.890625 
Q 34.328125 43.890625 38.421875 42.328125 
Q 42.53125 40.765625 45.40625 37.90625 
Q 48.296875 35.0625 49.859375 31.109375 
Q 51.421875 27.15625 51.421875 22.40625 
" id="LiberationSans-35"/>
      </defs>
      <g style="fill:#262626;" transform="translate(275.136032197 455.246875)scale(0.1 -0.1)">
       <use xlink:href="#LiberationSans-35"/>
       <use x="55.615234375" xlink:href="#LiberationSans-30"/>
      </g>
     </g>
    </g>
    <g id="xtick_7">
     <g id="line2d_13">
      <g>
       <use style="fill:#262626;stroke:#262626;" x="318.272727273" xlink:href="#m31235fbd9f" y="441.0"/>
      </g>
     </g>
     <g id="line2d_14">
      <g>
       <use style="fill:#262626;stroke:#262626;" x="318.272727273" xlink:href="#m31235fbd9f" y="50.4"/>
      </g>
     </g>
     <g id="text_7">
      <!-- 60 -->
      <defs>
       <path d="M 51.21875 22.515625 
Q 51.21875 17.328125 49.78125 13 
Q 48.34375 8.6875 45.53125 5.578125 
Q 42.71875 2.484375 38.5625 0.75 
Q 34.421875 -0.984375 29 -0.984375 
Q 23 -0.984375 18.5 1.3125 
Q 14.015625 3.609375 11.03125 7.921875 
Q 8.0625 12.25 6.5625 18.53125 
Q 5.078125 24.8125 5.078125 32.8125 
Q 5.078125 42 6.765625 48.921875 
Q 8.453125 55.859375 11.625 60.5 
Q 14.796875 65.140625 19.359375 67.484375 
Q 23.921875 69.828125 29.6875 69.828125 
Q 33.203125 69.828125 36.28125 69.09375 
Q 39.359375 68.359375 41.875 66.71875 
Q 44.390625 65.09375 46.28125 62.40625 
Q 48.1875 59.71875 49.3125 55.8125 
L 40.921875 54.296875 
Q 39.546875 58.734375 36.546875 60.71875 
Q 33.546875 62.703125 29.59375 62.703125 
Q 25.984375 62.703125 23.046875 60.984375 
Q 20.125 59.28125 18.0625 55.875 
Q 16.015625 52.484375 14.90625 47.359375 
Q 13.8125 42.234375 13.8125 35.40625 
Q 16.21875 39.84375 20.5625 42.15625 
Q 24.90625 44.484375 30.515625 44.484375 
Q 35.203125 44.484375 39.015625 42.96875 
Q 42.828125 41.453125 45.53125 38.59375 
Q 48.25 35.75 49.734375 31.671875 
Q 51.21875 27.59375 51.21875 22.515625 
M 42.28125 22.125 
Q 42.28125 25.6875 41.40625 28.5625 
Q 40.53125 31.453125 38.765625 33.46875 
Q 37.015625 35.5 34.421875 36.59375 
Q 31.84375 37.703125 28.421875 37.703125 
Q 26.03125 37.703125 23.578125 36.984375 
Q 21.140625 36.28125 19.15625 34.6875 
Q 17.1875 33.109375 15.9375 30.515625 
Q 14.703125 27.9375 14.703125 24.21875 
Q 14.703125 20.40625 15.671875 17.109375 
Q 16.65625 13.8125 18.484375 11.375 
Q 20.3125 8.9375 22.890625 7.515625 
Q 25.484375 6.109375 28.71875 6.109375 
Q 31.890625 6.109375 34.40625 7.203125 
Q 36.921875 8.296875 38.671875 10.375 
Q 40.4375 12.453125 41.359375 15.421875 
Q 42.28125 18.40625 42.28125 22.125 
" id="LiberationSans-36"/>
      </defs>
      <g style="fill:#262626;" transform="translate(312.711789773 455.246875)scale(0.1 -0.1)">
       <use xlink:href="#LiberationSans-36"/>
       <use x="55.615234375" xlink:href="#LiberationSans-30"/>
      </g>
     </g>
    </g>
    <g id="xtick_8">
     <g id="line2d_15">
      <g>
       <use style="fill:#262626;stroke:#262626;" x="355.848484848" xlink:href="#m31235fbd9f" y="441.0"/>
      </g>
     </g>
     <g id="line2d_16">
      <g>
       <use style="fill:#262626;stroke:#262626;" x="355.848484848" xlink:href="#m31235fbd9f" y="50.4"/>
      </g>
     </g>
     <g id="text_8">
      <!-- 70 -->
      <defs>
       <path d="M 50.59375 61.671875 
Q 45.40625 53.765625 41.0625 46.453125 
Q 36.71875 39.15625 33.59375 31.75 
Q 30.46875 24.359375 28.734375 16.578125 
Q 27 8.796875 27 0 
L 17.828125 0 
Q 17.828125 8.25 19.78125 16.1875 
Q 21.734375 24.125 25.046875 31.765625 
Q 28.375 39.40625 32.765625 46.78125 
Q 37.15625 54.15625 42.09375 61.328125 
L 5.125 61.328125 
L 5.125 68.796875 
L 50.59375 68.796875 
z
" id="LiberationSans-37"/>
      </defs>
      <g style="fill:#262626;" transform="translate(350.287547348 455.246875)scale(0.1 -0.1)">
       <use xlink:href="#LiberationSans-37"/>
       <use x="55.615234375" xlink:href="#LiberationSans-30"/>
      </g>
     </g>
    </g>
    <g id="xtick_9">
     <g id="line2d_17">
      <g>
       <use style="fill:#262626;stroke:#262626;" x="393.424242424" xlink:href="#m31235fbd9f" y="441.0"/>
      </g>
     </g>
     <g id="line2d_18">
      <g>
       <use style="fill:#262626;stroke:#262626;" x="393.424242424" xlink:href="#m31235fbd9f" y="50.4"/>
      </g>
     </g>
     <g id="text_9">
      <!-- 80 -->
      <defs>
       <path d="M 51.265625 19.1875 
Q 51.265625 14.796875 49.875 11.109375 
Q 48.484375 7.421875 45.625 4.734375 
Q 42.78125 2.046875 38.328125 0.53125 
Q 33.890625 -0.984375 27.828125 -0.984375 
Q 21.78125 -0.984375 17.359375 0.53125 
Q 12.9375 2.046875 10.03125 4.703125 
Q 7.125 7.375 5.734375 11.0625 
Q 4.34375 14.75 4.34375 19.09375 
Q 4.34375 22.859375 5.484375 25.78125 
Q 6.640625 28.71875 8.5625 30.828125 
Q 10.5 32.953125 12.96875 34.25 
Q 15.4375 35.546875 18.0625 35.984375 
L 18.0625 36.1875 
Q 15.1875 36.859375 12.90625 38.375 
Q 10.640625 39.890625 9.09375 42.015625 
Q 7.5625 44.140625 6.75 46.71875 
Q 5.953125 49.3125 5.953125 52.203125 
Q 5.953125 55.8125 7.34375 59 
Q 8.734375 62.203125 11.46875 64.625 
Q 14.203125 67.046875 18.25 68.4375 
Q 22.3125 69.828125 27.640625 69.828125 
Q 33.25 69.828125 37.375 68.40625 
Q 41.5 67 44.203125 64.578125 
Q 46.921875 62.15625 48.234375 58.9375 
Q 49.5625 55.71875 49.5625 52.09375 
Q 49.5625 49.265625 48.75 46.671875 
Q 47.953125 44.09375 46.40625 41.96875 
Q 44.875 39.84375 42.59375 38.34375 
Q 40.328125 36.859375 37.359375 36.28125 
L 37.359375 36.078125 
Q 40.328125 35.59375 42.859375 34.296875 
Q 45.40625 33.015625 47.265625 30.890625 
Q 49.125 28.765625 50.1875 25.828125 
Q 51.265625 22.90625 51.265625 19.1875 
M 40.4375 51.609375 
Q 40.4375 54.203125 39.765625 56.34375 
Q 39.109375 58.5 37.59375 60.03125 
Q 36.078125 61.578125 33.640625 62.421875 
Q 31.203125 63.28125 27.640625 63.28125 
Q 24.171875 63.28125 21.78125 62.421875 
Q 19.390625 61.578125 17.84375 60.03125 
Q 16.3125 58.5 15.625 56.34375 
Q 14.9375 54.203125 14.9375 51.609375 
Q 14.9375 49.5625 15.46875 47.40625 
Q 16.015625 45.265625 17.421875 43.5 
Q 18.84375 41.75 21.328125 40.625 
Q 23.828125 39.5 27.734375 39.5 
Q 31.890625 39.5 34.40625 40.625 
Q 36.921875 41.75 38.25 43.5 
Q 39.59375 45.265625 40.015625 47.40625 
Q 40.4375 49.5625 40.4375 51.609375 
M 42.140625 20.015625 
Q 42.140625 22.515625 41.453125 24.828125 
Q 40.765625 27.15625 39.109375 28.9375 
Q 37.453125 30.71875 34.640625 31.8125 
Q 31.84375 32.90625 27.640625 32.90625 
Q 23.78125 32.90625 21.0625 31.8125 
Q 18.359375 30.71875 16.671875 28.90625 
Q 14.984375 27.09375 14.203125 24.71875 
Q 13.421875 22.359375 13.421875 19.828125 
Q 13.421875 16.65625 14.203125 14.03125 
Q 14.984375 11.421875 16.6875 9.546875 
Q 18.40625 7.671875 21.1875 6.640625 
Q 23.96875 5.609375 27.9375 5.609375 
Q 31.9375 5.609375 34.671875 6.640625 
Q 37.40625 7.671875 39.0625 9.546875 
Q 40.71875 11.421875 41.421875 14.078125 
Q 42.140625 16.75 42.140625 20.015625 
" id="LiberationSans-38"/>
      </defs>
      <g style="fill:#262626;" transform="translate(387.863304924 455.246875)scale(0.1 -0.1)">
       <use xlink:href="#LiberationSans-38"/>
       <use x="55.615234375" xlink:href="#LiberationSans-30"/>
      </g>
     </g>
    </g>
    <g id="xtick_10">
     <g id="line2d_19">
      <g>
       <use style="fill:#262626;stroke:#262626;" x="431.0" xlink:href="#m31235fbd9f" y="441.0"/>
      </g>
     </g>
     <g id="line2d_20">
      <g>
       <use style="fill:#262626;stroke:#262626;" x="431.0" xlink:href="#m31235fbd9f" y="50.4"/>
      </g>
     </g>
     <g id="text_10">
      <!-- 90 -->
      <defs>
       <path d="M 50.875 35.796875 
Q 50.875 26.609375 49.140625 19.703125 
Q 47.40625 12.796875 44.1875 8.203125 
Q 40.96875 3.609375 36.34375 1.3125 
Q 31.734375 -0.984375 25.984375 -0.984375 
Q 22.015625 -0.984375 18.84375 -0.171875 
Q 15.671875 0.640625 13.171875 2.34375 
Q 10.6875 4.046875 8.921875 6.78125 
Q 7.171875 9.515625 6.109375 13.375 
L 14.5 14.703125 
Q 15.875 10.25 18.78125 8.171875 
Q 21.6875 6.109375 26.125 6.109375 
Q 29.6875 6.109375 32.640625 7.78125 
Q 35.59375 9.46875 37.671875 12.84375 
Q 39.75 16.21875 40.921875 21.296875 
Q 42.09375 26.375 42.1875 33.203125 
Q 41.15625 30.90625 39.375 29.09375 
Q 37.59375 27.296875 35.328125 26.046875 
Q 33.0625 24.8125 30.421875 24.140625 
Q 27.78125 23.484375 25.09375 23.484375 
Q 20.40625 23.484375 16.625 25.171875 
Q 12.84375 26.859375 10.203125 29.875 
Q 7.5625 32.90625 6.125 37.171875 
Q 4.6875 41.453125 4.6875 46.6875 
Q 4.6875 52 6.21875 56.296875 
Q 7.765625 60.59375 10.6875 63.59375 
Q 13.625 66.609375 17.890625 68.21875 
Q 22.171875 69.828125 27.59375 69.828125 
Q 39.0625 69.828125 44.96875 61.328125 
Q 50.875 52.828125 50.875 35.796875 
M 41.3125 44.28125 
Q 41.3125 48.09375 40.40625 51.453125 
Q 39.5 54.828125 37.71875 57.3125 
Q 35.9375 59.8125 33.328125 61.25 
Q 30.71875 62.703125 27.296875 62.703125 
Q 24.125 62.703125 21.578125 61.578125 
Q 19.046875 60.453125 17.28125 58.375 
Q 15.53125 56.296875 14.578125 53.3125 
Q 13.625 50.34375 13.625 46.6875 
Q 13.625 43.21875 14.46875 40.234375 
Q 15.328125 37.25 17.03125 35.078125 
Q 18.75 32.90625 21.28125 31.65625 
Q 23.828125 30.421875 27.203125 30.421875 
Q 29.640625 30.421875 32.15625 31.25 
Q 34.671875 32.078125 36.6875 33.78125 
Q 38.71875 35.5 40.015625 38.109375 
Q 41.3125 40.71875 41.3125 44.28125 
" id="LiberationSans-39"/>
      </defs>
      <g style="fill:#262626;" transform="translate(425.4390625 455.246875)scale(0.1 -0.1)">
       <use xlink:href="#LiberationSans-39"/>
       <use x="55.615234375" xlink:href="#LiberationSans-30"/>
      </g>
     </g>
    </g>
    <g id="xtick_11">
     <g id="line2d_21">
      <g>
       <use style="fill:#262626;stroke:#262626;" x="468.575757576" xlink:href="#m31235fbd9f" y="441.0"/>
      </g>
     </g>
     <g id="line2d_22">
      <g>
       <use style="fill:#262626;stroke:#262626;" x="468.575757576" xlink:href="#m31235fbd9f" y="50.4"/>
      </g>
     </g>
     <g id="text_11">
      <!-- 100 -->
      <g style="fill:#262626;" transform="translate(460.234351326 455.246875)scale(0.1 -0.1)">
       <use xlink:href="#LiberationSans-31"/>
       <use x="55.615234375" xlink:href="#LiberationSans-30"/>
       <use x="111.23046875" xlink:href="#LiberationSans-30"/>
      </g>
     </g>
    </g>
    <g id="xtick_12">
     <g id="line2d_23">
      <g>
       <use style="fill:#262626;stroke:#262626;" x="506.151515152" xlink:href="#m31235fbd9f" y="441.0"/>
      </g>
     </g>
     <g id="line2d_24">
      <g>
       <use style="fill:#262626;stroke:#262626;" x="506.151515152" xlink:href="#m31235fbd9f" y="50.4"/>
      </g>
     </g>
     <g id="text_12">
      <!-- 110 -->
      <g style="fill:#262626;" transform="translate(497.810108902 455.246875)scale(0.1 -0.1)">
       <use xlink:href="#LiberationSans-31"/>
       <use x="55.615234375" xlink:href="#LiberationSans-31"/>
       <use x="111.23046875" xlink:href="#LiberationSans-30"/>
      </g>
     </g>
    </g>
    <g id="xtick_13">
     <g id="line2d_25">
      <g>
       <use style="fill:#262626;stroke:#262626;" x="543.727272727" xlink:href="#m31235fbd9f" y="441.0"/>
      </g>
     </g>
     <g id="line2d_26">
      <g>
       <use style="fill:#262626;stroke:#262626;" x="543.727272727" xlink:href="#m31235fbd9f" y="50.4"/>
      </g>
     </g>
     <g id="text_13">
      <!-- 120 -->
      <g style="fill:#262626;" transform="translate(535.385866477 455.246875)scale(0.1 -0.1)">
       <use xlink:href="#LiberationSans-31"/>
       <use x="55.615234375" xlink:href="#LiberationSans-32"/>
       <use x="111.23046875" xlink:href="#LiberationSans-30"/>
      </g>
     </g>
    </g>
    <g id="xtick_14">
     <g id="line2d_27">
      <g>
       <use style="fill:#262626;stroke:#262626;" x="581.303030303" xlink:href="#m31235fbd9f" y="441.0"/>
      </g>
     </g>
     <g id="line2d_28">
      <g>
       <use style="fill:#262626;stroke:#262626;" x="581.303030303" xlink:href="#m31235fbd9f" y="50.4"/>
      </g>
     </g>
     <g id="text_14">
      <!-- 130 -->
      <g style="fill:#262626;" transform="translate(572.961624053 455.246875)scale(0.1 -0.1)">
       <use xlink:href="#LiberationSans-31"/>
       <use x="55.615234375" xlink:href="#LiberationSans-33"/>
       <use x="111.23046875" xlink:href="#LiberationSans-30"/>
      </g>
     </g>
    </g>
    <g id="xtick_15">
     <g id="line2d_29">
      <g>
       <use style="fill:#262626;stroke:#262626;" x="618.878787879" xlink:href="#m31235fbd9f" y="441.0"/>
      </g>
     </g>
     <g id="line2d_30">
      <g>
       <use style="fill:#262626;stroke:#262626;" x="618.878787879" xlink:href="#m31235fbd9f" y="50.4"/>
      </g>
     </g>
     <g id="text_15">
      <!-- 140 -->
      <g style="fill:#262626;" transform="translate(610.537381629 455.246875)scale(0.1 -0.1)">
       <use xlink:href="#LiberationSans-31"/>
       <use x="55.615234375" xlink:href="#LiberationSans-34"/>
       <use x="111.23046875" xlink:href="#LiberationSans-30"/>
      </g>
     </g>
    </g>
   </g>
   <g id="matplotlib.axis_2">
    <g id="ytick_1">
     <g id="line2d_31">
      <g>
       <use style="fill:#262626;stroke:#262626;" x="90.0" xlink:href="#m31235fbd9f" y="441.0"/>
      </g>
     </g>
     <g id="line2d_32">
      <g>
       <use style="fill:#262626;stroke:#262626;" x="648.0" xlink:href="#m31235fbd9f" y="441.0"/>
      </g>
     </g>
     <g id="text_16">
      <!-- 0.0 -->
      <defs>
       <path d="M 9.125 0 
L 9.125 10.6875 
L 18.65625 10.6875 
L 18.65625 0 
z
" id="LiberationSans-2e"/>
      </defs>
      <g style="fill:#262626;" transform="translate(69.1 443.5859375)scale(0.1 -0.1)">
       <use xlink:href="#LiberationSans-30"/>
       <use x="55.615234375" xlink:href="#LiberationSans-2e"/>
       <use x="83.3984375" xlink:href="#LiberationSans-30"/>
      </g>
     </g>
    </g>
    <g id="ytick_2">
     <g id="line2d_33">
      <g>
       <use style="fill:#262626;stroke:#262626;" x="90.0" xlink:href="#m31235fbd9f" y="362.88"/>
      </g>
     </g>
     <g id="line2d_34">
      <g>
       <use style="fill:#262626;stroke:#262626;" x="648.0" xlink:href="#m31235fbd9f" y="362.88"/>
      </g>
     </g>
     <g id="text_17">
      <!-- 0.2 -->
      <g style="fill:#262626;" transform="translate(69.1 365.4659375)scale(0.1 -0.1)">
       <use xlink:href="#LiberationSans-30"/>
       <use x="55.615234375" xlink:href="#LiberationSans-2e"/>
       <use x="83.3984375" xlink:href="#LiberationSans-32"/>
      </g>
     </g>
    </g>
    <g id="ytick_3">
     <g id="line2d_35">
      <g>
       <use style="fill:#262626;stroke:#262626;" x="90.0" xlink:href="#m31235fbd9f" y="284.76"/>
      </g>
     </g>
     <g id="line2d_36">
      <g>
       <use style="fill:#262626;stroke:#262626;" x="648.0" xlink:href="#m31235fbd9f" y="284.76"/>
      </g>
     </g>
     <g id="text_18">
      <!-- 0.4 -->
      <g style="fill:#262626;" transform="translate(69.1 287.3459375)scale(0.1 -0.1)">
       <use xlink:href="#LiberationSans-30"/>
       <use x="55.615234375" xlink:href="#LiberationSans-2e"/>
       <use x="83.3984375" xlink:href="#LiberationSans-34"/>
      </g>
     </g>
    </g>
    <g id="ytick_4">
     <g id="line2d_37">
      <g>
       <use style="fill:#262626;stroke:#262626;" x="90.0" xlink:href="#m31235fbd9f" y="206.64"/>
      </g>
     </g>
     <g id="line2d_38">
      <g>
       <use style="fill:#262626;stroke:#262626;" x="648.0" xlink:href="#m31235fbd9f" y="206.64"/>
      </g>
     </g>
     <g id="text_19">
      <!-- 0.6 -->
      <g style="fill:#262626;" transform="translate(69.1 209.2259375)scale(0.1 -0.1)">
       <use xlink:href="#LiberationSans-30"/>
       <use x="55.615234375" xlink:href="#LiberationSans-2e"/>
       <use x="83.3984375" xlink:href="#LiberationSans-36"/>
      </g>
     </g>
    </g>
    <g id="ytick_5">
     <g id="line2d_39">
      <g>
       <use style="fill:#262626;stroke:#262626;" x="90.0" xlink:href="#m31235fbd9f" y="128.52"/>
      </g>
     </g>
     <g id="line2d_40">
      <g>
       <use style="fill:#262626;stroke:#262626;" x="648.0" xlink:href="#m31235fbd9f" y="128.52"/>
      </g>
     </g>
     <g id="text_20">
      <!-- 0.8 -->
      <g style="fill:#262626;" transform="translate(69.1 131.1059375)scale(0.1 -0.1)">
       <use xlink:href="#LiberationSans-30"/>
       <use x="55.615234375" xlink:href="#LiberationSans-2e"/>
       <use x="83.3984375" xlink:href="#LiberationSans-38"/>
      </g>
     </g>
    </g>
    <g id="ytick_6">
     <g id="line2d_41">
      <g>
       <use style="fill:#262626;stroke:#262626;" x="90.0" xlink:href="#m31235fbd9f" y="50.4"/>
      </g>
     </g>
     <g id="line2d_42">
      <g>
       <use style="fill:#262626;stroke:#262626;" x="648.0" xlink:href="#m31235fbd9f" y="50.4"/>
      </g>
     </g>
     <g id="text_21">
      <!-- 1.0 -->
      <g style="fill:#262626;" transform="translate(69.1 52.9859375)scale(0.1 -0.1)">
       <use xlink:href="#LiberationSans-31"/>
       <use x="55.615234375" xlink:href="#LiberationSans-2e"/>
       <use x="83.3984375" xlink:href="#LiberationSans-30"/>
      </g>
     </g>
    </g>
   </g>
   <g id="patch_3">
    <path clip-path="url(#p51da14ac28)" d="M 90.939394 441 
L 94.69697 441 
L 94.69697 50.4 
L 90.939394 50.4 
z
" style="fill:#008000;stroke:#000000;stroke-linejoin:miter;stroke-width:0.3;"/>
   </g>
   <g id="patch_4">
    <path clip-path="url(#p51da14ac28)" d="M 94.69697 441 
L 98.454545 441 
L 98.454545 112.162412 
L 94.69697 112.162412 
z
" style="fill:#008000;stroke:#000000;stroke-linejoin:miter;stroke-width:0.3;"/>
   </g>
   <g id="patch_5">
    <path clip-path="url(#p51da14ac28)" d="M 98.454545 441 
L 102.212121 441 
L 102.212121 118.337871 
L 98.454545 118.337871 
z
" style="fill:#00bfff;stroke:#000000;stroke-linejoin:miter;stroke-width:0.3;"/>
   </g>
   <g id="patch_6">
    <path clip-path="url(#p51da14ac28)" d="M 102.212121 441 
L 105.969697 441 
L 105.969697 140.353114 
L 102.212121 140.353114 
z
" style="fill:#008000;stroke:#000000;stroke-linejoin:miter;stroke-width:0.3;"/>
   </g>
   <g id="patch_7">
    <path clip-path="url(#p51da14ac28)" d="M 105.969697 441 
L 109.727273 441 
L 109.727273 145.379365 
L 105.969697 145.379365 
z
" style="fill:#00bfff;stroke:#000000;stroke-linejoin:miter;stroke-width:0.3;"/>
   </g>
   <g id="patch_8">
    <path clip-path="url(#p51da14ac28)" d="M 109.727273 441 
L 113.484848 441 
L 113.484848 161.802364 
L 109.727273 161.802364 
z
" style="fill:#ba55d3;stroke:#000000;stroke-linejoin:miter;stroke-width:0.3;"/>
   </g>
   <g id="patch_9">
    <path clip-path="url(#p51da14ac28)" d="M 113.484848 441 
L 117.242424 441 
L 117.242424 162.488721 
L 113.484848 162.488721 
z
" style="fill:#ba55d3;stroke:#000000;stroke-linejoin:miter;stroke-width:0.3;"/>
   </g>
   <g id="patch_10">
    <path clip-path="url(#p51da14ac28)" d="M 117.242424 441 
L 121 441 
L 121 163.947005 
L 117.242424 163.947005 
z
" style="fill:#ba55d3;stroke:#000000;stroke-linejoin:miter;stroke-width:0.3;"/>
   </g>
   <g id="patch_11">
    <path clip-path="url(#p51da14ac28)" d="M 121 441 
L 124.757576 441 
L 124.757576 173.968753 
L 121 173.968753 
z
" style="fill:#00bfff;stroke:#000000;stroke-linejoin:miter;stroke-width:0.3;"/>
   </g>
   <g id="patch_12">
    <path clip-path="url(#p51da14ac28)" d="M 124.757576 441 
L 128.515152 441 
L 128.515152 178.413367 
L 124.757576 178.413367 
z
" style="fill:#ba55d3;stroke:#000000;stroke-linejoin:miter;stroke-width:0.3;"/>
   </g>
   <g id="patch_13">
    <path clip-path="url(#p51da14ac28)" d="M 128.515152 441 
L 132.272727 441 
L 132.272727 203.345286 
L 128.515152 203.345286 
z
" style="fill:#00bfff;stroke:#000000;stroke-linejoin:miter;stroke-width:0.3;"/>
   </g>
   <g id="patch_14">
    <path clip-path="url(#p51da14ac28)" d="M 132.272727 441 
L 136.030303 441 
L 136.030303 206.663036 
L 132.272727 206.663036 
z
" style="fill:#ba55d3;stroke:#000000;stroke-linejoin:miter;stroke-width:0.3;"/>
   </g>
   <g id="patch_15">
    <path clip-path="url(#p51da14ac28)" d="M 136.030303 441 
L 139.787879 441 
L 139.787879 210.381532 
L 136.030303 210.381532 
z
" style="fill:#ba55d3;stroke:#000000;stroke-linejoin:miter;stroke-width:0.3;"/>
   </g>
   <g id="patch_16">
    <path clip-path="url(#p51da14ac28)" d="M 139.787879 441 
L 143.545455 441 
L 143.545455 222.382291 
L 139.787879 222.382291 
z
" style="fill:#008000;stroke:#000000;stroke-linejoin:miter;stroke-width:0.3;"/>
   </g>
   <g id="patch_17">
    <path clip-path="url(#p51da14ac28)" d="M 143.545455 441 
L 147.30303 441 
L 147.30303 222.513233 
L 143.545455 222.513233 
z
" style="fill:#ff8c00;stroke:#000000;stroke-linejoin:miter;stroke-width:0.3;"/>
   </g>
   <g id="patch_18">
    <path clip-path="url(#p51da14ac28)" d="M 147.30303 441 
L 151.060606 441 
L 151.060606 241.275927 
L 147.30303 241.275927 
z
" style="fill:#00bfff;stroke:#000000;stroke-linejoin:miter;stroke-width:0.3;"/>
   </g>
   <g id="patch_19">
    <path clip-path="url(#p51da14ac28)" d="M 151.060606 441 
L 154.818182 441 
L 154.818182 245.031394 
L 151.060606 245.031394 
z
" style="fill:#00bfff;stroke:#000000;stroke-linejoin:miter;stroke-width:0.3;"/>
   </g>
   <g id="patch_20">
    <path clip-path="url(#p51da14ac28)" d="M 154.818182 441 
L 158.575758 441 
L 158.575758 245.493477 
L 154.818182 245.493477 
z
" style="fill:#ff8c00;stroke:#000000;stroke-linejoin:miter;stroke-width:0.3;"/>
   </g>
   <g id="patch_21">
    <path clip-path="url(#p51da14ac28)" d="M 158.575758 441 
L 162.333333 441 
L 162.333333 251.113725 
L 158.575758 251.113725 
z
" style="fill:#a52a2a;stroke:#000000;stroke-linejoin:miter;stroke-width:0.3;"/>
   </g>
   <g id="patch_22">
    <path clip-path="url(#p51da14ac28)" d="M 162.333333 441 
L 166.090909 441 
L 166.090909 253.673723 
L 162.333333 253.673723 
z
" style="fill:#00bfff;stroke:#000000;stroke-linejoin:miter;stroke-width:0.3;"/>
   </g>
   <g id="patch_23">
    <path clip-path="url(#p51da14ac28)" d="M 166.090909 441 
L 169.848485 441 
L 169.848485 257.384587 
L 166.090909 257.384587 
z
" style="fill:#00bfff;stroke:#000000;stroke-linejoin:miter;stroke-width:0.3;"/>
   </g>
   <g id="patch_24">
    <path clip-path="url(#p51da14ac28)" d="M 169.848485 441 
L 173.606061 441 
L 173.606061 260.056009 
L 169.848485 260.056009 
z
" style="fill:#ba55d3;stroke:#000000;stroke-linejoin:miter;stroke-width:0.3;"/>
   </g>
   <g id="patch_25">
    <path clip-path="url(#p51da14ac28)" d="M 173.606061 441 
L 177.363636 441 
L 177.363636 264.907046 
L 173.606061 264.907046 
z
" style="fill:#008000;stroke:#000000;stroke-linejoin:miter;stroke-width:0.3;"/>
   </g>
   <g id="patch_26">
    <path clip-path="url(#p51da14ac28)" d="M 177.363636 441 
L 181.121212 441 
L 181.121212 266.361528 
L 177.363636 266.361528 
z
" style="fill:#ba55d3;stroke:#000000;stroke-linejoin:miter;stroke-width:0.3;"/>
   </g>
   <g id="patch_27">
    <path clip-path="url(#p51da14ac28)" d="M 181.121212 441 
L 184.878788 441 
L 184.878788 266.371706 
L 181.121212 266.371706 
z
" style="fill:#00bfff;stroke:#000000;stroke-linejoin:miter;stroke-width:0.3;"/>
   </g>
   <g id="patch_28">
    <path clip-path="url(#p51da14ac28)" d="M 184.878788 441 
L 188.636364 441 
L 188.636364 268.166691 
L 184.878788 268.166691 
z
" style="fill:#a52a2a;stroke:#000000;stroke-linejoin:miter;stroke-width:0.3;"/>
   </g>
   <g id="patch_29">
    <path clip-path="url(#p51da14ac28)" d="M 188.636364 441 
L 192.393939 441 
L 192.393939 268.486836 
L 188.636364 268.486836 
z
" style="fill:#008000;stroke:#000000;stroke-linejoin:miter;stroke-width:0.3;"/>
   </g>
   <g id="patch_30">
    <path clip-path="url(#p51da14ac28)" d="M 192.393939 441 
L 196.151515 441 
L 196.151515 268.559735 
L 192.393939 268.559735 
z
" style="fill:#00bfff;stroke:#000000;stroke-linejoin:miter;stroke-width:0.3;"/>
   </g>
   <g id="patch_31">
    <path clip-path="url(#p51da14ac28)" d="M 196.151515 441 
L 199.909091 441 
L 199.909091 270.293253 
L 196.151515 270.293253 
z
" style="fill:#ff8c00;stroke:#000000;stroke-linejoin:miter;stroke-width:0.3;"/>
   </g>
   <g id="patch_32">
    <path clip-path="url(#p51da14ac28)" d="M 199.909091 441 
L 203.666667 441 
L 203.666667 273.818556 
L 199.909091 273.818556 
z
" style="fill:#00bfff;stroke:#000000;stroke-linejoin:miter;stroke-width:0.3;"/>
   </g>
   <g id="patch_33">
    <path clip-path="url(#p51da14ac28)" d="M 203.666667 441 
L 207.424242 441 
L 207.424242 274.307922 
L 203.666667 274.307922 
z
" style="fill:#008000;stroke:#000000;stroke-linejoin:miter;stroke-width:0.3;"/>
   </g>
   <g id="patch_34">
    <path clip-path="url(#p51da14ac28)" d="M 207.424242 441 
L 211.181818 441 
L 211.181818 274.905792 
L 207.424242 274.905792 
z
" style="fill:#ba55d3;stroke:#000000;stroke-linejoin:miter;stroke-width:0.3;"/>
   </g>
   <g id="patch_35">
    <path clip-path="url(#p51da14ac28)" d="M 211.181818 441 
L 214.939394 441 
L 214.939394 275.421254 
L 211.181818 275.421254 
z
" style="fill:#a52a2a;stroke:#000000;stroke-linejoin:miter;stroke-width:0.3;"/>
   </g>
   <g id="patch_36">
    <path clip-path="url(#p51da14ac28)" d="M 214.939394 441 
L 218.69697 441 
L 218.69697 277.103071 
L 214.939394 277.103071 
z
" style="fill:#ba55d3;stroke:#000000;stroke-linejoin:miter;stroke-width:0.3;"/>
   </g>
   <g id="patch_37">
    <path clip-path="url(#p51da14ac28)" d="M 218.69697 441 
L 222.454545 441 
L 222.454545 278.859817 
L 218.69697 278.859817 
z
" style="fill:#ba55d3;stroke:#000000;stroke-linejoin:miter;stroke-width:0.3;"/>
   </g>
   <g id="patch_38">
    <path clip-path="url(#p51da14ac28)" d="M 222.454545 441 
L 226.212121 441 
L 226.212121 282.421261 
L 222.454545 282.421261 
z
" style="fill:#00bfff;stroke:#000000;stroke-linejoin:miter;stroke-width:0.3;"/>
   </g>
   <g id="patch_39">
    <path clip-path="url(#p51da14ac28)" d="M 226.212121 441 
L 229.969697 441 
L 229.969697 282.443641 
L 226.212121 282.443641 
z
" style="fill:#00bfff;stroke:#000000;stroke-linejoin:miter;stroke-width:0.3;"/>
   </g>
   <g id="patch_40">
    <path clip-path="url(#p51da14ac28)" d="M 229.969697 441 
L 233.727273 441 
L 233.727273 285.274994 
L 229.969697 285.274994 
z
" style="fill:#00bfff;stroke:#000000;stroke-linejoin:miter;stroke-width:0.3;"/>
   </g>
   <g id="patch_41">
    <path clip-path="url(#p51da14ac28)" d="M 233.727273 441 
L 237.484848 441 
L 237.484848 286.430268 
L 233.727273 286.430268 
z
" style="fill:#00bfff;stroke:#000000;stroke-linejoin:miter;stroke-width:0.3;"/>
   </g>
   <g id="patch_42">
    <path clip-path="url(#p51da14ac28)" d="M 237.484848 441 
L 241.242424 441 
L 241.242424 286.772963 
L 237.484848 286.772963 
z
" style="fill:#00bfff;stroke:#000000;stroke-linejoin:miter;stroke-width:0.3;"/>
   </g>
   <g id="patch_43">
    <path clip-path="url(#p51da14ac28)" d="M 241.242424 441 
L 245 441 
L 245 288.883722 
L 241.242424 288.883722 
z
" style="fill:#00bfff;stroke:#000000;stroke-linejoin:miter;stroke-width:0.3;"/>
   </g>
   <g id="patch_44">
    <path clip-path="url(#p51da14ac28)" d="M 245 441 
L 248.757576 441 
L 248.757576 289.654163 
L 245 289.654163 
z
" style="fill:#a52a2a;stroke:#000000;stroke-linejoin:miter;stroke-width:0.3;"/>
   </g>
   <g id="patch_45">
    <path clip-path="url(#p51da14ac28)" d="M 248.757576 441 
L 252.515152 441 
L 252.515152 289.830837 
L 248.757576 289.830837 
z
" style="fill:#a52a2a;stroke:#000000;stroke-linejoin:miter;stroke-width:0.3;"/>
   </g>
   <g id="patch_46">
    <path clip-path="url(#p51da14ac28)" d="M 252.515152 441 
L 256.272727 441 
L 256.272727 290.364958 
L 252.515152 290.364958 
z
" style="fill:#ba55d3;stroke:#000000;stroke-linejoin:miter;stroke-width:0.3;"/>
   </g>
   <g id="patch_47">
    <path clip-path="url(#p51da14ac28)" d="M 256.272727 441 
L 260.030303 441 
L 260.030303 290.539616 
L 256.272727 290.539616 
z
" style="fill:#00bfff;stroke:#000000;stroke-linejoin:miter;stroke-width:0.3;"/>
   </g>
   <g id="patch_48">
    <path clip-path="url(#p51da14ac28)" d="M 260.030303 441 
L 263.787879 441 
L 263.787879 291.091047 
L 260.030303 291.091047 
z
" style="fill:#ba55d3;stroke:#000000;stroke-linejoin:miter;stroke-width:0.3;"/>
   </g>
   <g id="patch_49">
    <path clip-path="url(#p51da14ac28)" d="M 263.787879 441 
L 267.545455 441 
L 267.545455 291.093147 
L 263.787879 291.093147 
z
" style="fill:#ba55d3;stroke:#000000;stroke-linejoin:miter;stroke-width:0.3;"/>
   </g>
   <g id="patch_50">
    <path clip-path="url(#p51da14ac28)" d="M 267.545455 441 
L 271.30303 441 
L 271.30303 291.545294 
L 267.545455 291.545294 
z
" style="fill:#a52a2a;stroke:#000000;stroke-linejoin:miter;stroke-width:0.3;"/>
   </g>
   <g id="patch_51">
    <path clip-path="url(#p51da14ac28)" d="M 271.30303 441 
L 275.060606 441 
L 275.060606 291.583656 
L 271.30303 291.583656 
z
" style="fill:#00bfff;stroke:#000000;stroke-linejoin:miter;stroke-width:0.3;"/>
   </g>
   <g id="patch_52">
    <path clip-path="url(#p51da14ac28)" d="M 275.060606 441 
L 278.818182 441 
L 278.818182 294.47288 
L 275.060606 294.47288 
z
" style="fill:#ba55d3;stroke:#000000;stroke-linejoin:miter;stroke-width:0.3;"/>
   </g>
   <g id="patch_53">
    <path clip-path="url(#p51da14ac28)" d="M 278.818182 441 
L 282.575758 441 
L 282.575758 295.761371 
L 278.818182 295.761371 
z
" style="fill:#008000;stroke:#000000;stroke-linejoin:miter;stroke-width:0.3;"/>
   </g>
   <g id="patch_54">
    <path clip-path="url(#p51da14ac28)" d="M 282.575758 441 
L 286.333333 441 
L 286.333333 298.289007 
L 282.575758 298.289007 
z
" style="fill:#a52a2a;stroke:#000000;stroke-linejoin:miter;stroke-width:0.3;"/>
   </g>
   <g id="patch_55">
    <path clip-path="url(#p51da14ac28)" d="M 286.333333 441 
L 290.090909 441 
L 290.090909 298.425819 
L 286.333333 298.425819 
z
" style="fill:#00bfff;stroke:#000000;stroke-linejoin:miter;stroke-width:0.3;"/>
   </g>
   <g id="patch_56">
    <path clip-path="url(#p51da14ac28)" d="M 290.090909 441 
L 293.848485 441 
L 293.848485 298.435609 
L 290.090909 298.435609 
z
" style="fill:#00bfff;stroke:#000000;stroke-linejoin:miter;stroke-width:0.3;"/>
   </g>
   <g id="patch_57">
    <path clip-path="url(#p51da14ac28)" d="M 293.848485 441 
L 297.606061 441 
L 297.606061 301.188752 
L 293.848485 301.188752 
z
" style="fill:#a52a2a;stroke:#000000;stroke-linejoin:miter;stroke-width:0.3;"/>
   </g>
   <g id="patch_58">
    <path clip-path="url(#p51da14ac28)" d="M 297.606061 441 
L 301.363636 441 
L 301.363636 301.451014 
L 297.606061 301.451014 
z
" style="fill:#00bfff;stroke:#000000;stroke-linejoin:miter;stroke-width:0.3;"/>
   </g>
   <g id="patch_59">
    <path clip-path="url(#p51da14ac28)" d="M 301.363636 441 
L 305.121212 441 
L 305.121212 307.452265 
L 301.363636 307.452265 
z
" style="fill:#ff8c00;stroke:#000000;stroke-linejoin:miter;stroke-width:0.3;"/>
   </g>
   <g id="patch_60">
    <path clip-path="url(#p51da14ac28)" d="M 305.121212 441 
L 308.878788 441 
L 308.878788 308.119618 
L 305.121212 308.119618 
z
" style="fill:#00bfff;stroke:#000000;stroke-linejoin:miter;stroke-width:0.3;"/>
   </g>
   <g id="patch_61">
    <path clip-path="url(#p51da14ac28)" d="M 308.878788 441 
L 312.636364 441 
L 312.636364 308.698867 
L 308.878788 308.698867 
z
" style="fill:#a52a2a;stroke:#000000;stroke-linejoin:miter;stroke-width:0.3;"/>
   </g>
   <g id="patch_62">
    <path clip-path="url(#p51da14ac28)" d="M 312.636364 441 
L 316.393939 441 
L 316.393939 308.836439 
L 312.636364 308.836439 
z
" style="fill:#00bfff;stroke:#000000;stroke-linejoin:miter;stroke-width:0.3;"/>
   </g>
   <g id="patch_63">
    <path clip-path="url(#p51da14ac28)" d="M 316.393939 441 
L 320.151515 441 
L 320.151515 309.371292 
L 316.393939 309.371292 
z
" style="fill:#00bfff;stroke:#000000;stroke-linejoin:miter;stroke-width:0.3;"/>
   </g>
   <g id="patch_64">
    <path clip-path="url(#p51da14ac28)" d="M 320.151515 441 
L 323.909091 441 
L 323.909091 309.614356 
L 320.151515 309.614356 
z
" style="fill:#a52a2a;stroke:#000000;stroke-linejoin:miter;stroke-width:0.3;"/>
   </g>
   <g id="patch_65">
    <path clip-path="url(#p51da14ac28)" d="M 323.909091 441 
L 327.666667 441 
L 327.666667 310.925753 
L 323.909091 310.925753 
z
" style="fill:#00bfff;stroke:#000000;stroke-linejoin:miter;stroke-width:0.3;"/>
   </g>
   <g id="patch_66">
    <path clip-path="url(#p51da14ac28)" d="M 327.666667 441 
L 331.424242 441 
L 331.424242 311.798417 
L 327.666667 311.798417 
z
" style="fill:#ba55d3;stroke:#000000;stroke-linejoin:miter;stroke-width:0.3;"/>
   </g>
   <g id="patch_67">
    <path clip-path="url(#p51da14ac28)" d="M 331.424242 441 
L 335.181818 441 
L 335.181818 312.002191 
L 331.424242 312.002191 
z
" style="fill:#a52a2a;stroke:#000000;stroke-linejoin:miter;stroke-width:0.3;"/>
   </g>
   <g id="patch_68">
    <path clip-path="url(#p51da14ac28)" d="M 335.181818 441 
L 338.939394 441 
L 338.939394 312.004807 
L 335.181818 312.004807 
z
" style="fill:#a52a2a;stroke:#000000;stroke-linejoin:miter;stroke-width:0.3;"/>
   </g>
   <g id="patch_69">
    <path clip-path="url(#p51da14ac28)" d="M 338.939394 441 
L 342.69697 441 
L 342.69697 312.281899 
L 338.939394 312.281899 
z
" style="fill:#a52a2a;stroke:#000000;stroke-linejoin:miter;stroke-width:0.3;"/>
   </g>
   <g id="patch_70">
    <path clip-path="url(#p51da14ac28)" d="M 342.69697 441 
L 346.454545 441 
L 346.454545 312.591125 
L 342.69697 312.591125 
z
" style="fill:#008000;stroke:#000000;stroke-linejoin:miter;stroke-width:0.3;"/>
   </g>
   <g id="patch_71">
    <path clip-path="url(#p51da14ac28)" d="M 346.454545 441 
L 350.212121 441 
L 350.212121 313.090546 
L 346.454545 313.090546 
z
" style="fill:#a52a2a;stroke:#000000;stroke-linejoin:miter;stroke-width:0.3;"/>
   </g>
   <g id="patch_72">
    <path clip-path="url(#p51da14ac28)" d="M 350.212121 441 
L 353.969697 441 
L 353.969697 314.357533 
L 350.212121 314.357533 
z
" style="fill:#a52a2a;stroke:#000000;stroke-linejoin:miter;stroke-width:0.3;"/>
   </g>
   <g id="patch_73">
    <path clip-path="url(#p51da14ac28)" d="M 353.969697 441 
L 357.727273 441 
L 357.727273 315.434837 
L 353.969697 315.434837 
z
" style="fill:#a52a2a;stroke:#000000;stroke-linejoin:miter;stroke-width:0.3;"/>
   </g>
   <g id="patch_74">
    <path clip-path="url(#p51da14ac28)" d="M 357.727273 441 
L 361.484848 441 
L 361.484848 317.755764 
L 357.727273 317.755764 
z
" style="fill:#a52a2a;stroke:#000000;stroke-linejoin:miter;stroke-width:0.3;"/>
   </g>
   <g id="patch_75">
    <path clip-path="url(#p51da14ac28)" d="M 361.484848 441 
L 365.242424 441 
L 365.242424 318.374402 
L 361.484848 318.374402 
z
" style="fill:#a52a2a;stroke:#000000;stroke-linejoin:miter;stroke-width:0.3;"/>
   </g>
   <g id="patch_76">
    <path clip-path="url(#p51da14ac28)" d="M 365.242424 441 
L 369 441 
L 369 319.181749 
L 365.242424 319.181749 
z
" style="fill:#a52a2a;stroke:#000000;stroke-linejoin:miter;stroke-width:0.3;"/>
   </g>
   <g id="patch_77">
    <path clip-path="url(#p51da14ac28)" d="M 369 441 
L 372.757576 441 
L 372.757576 320.00268 
L 369 320.00268 
z
" style="fill:#ff8c00;stroke:#000000;stroke-linejoin:miter;stroke-width:0.3;"/>
   </g>
   <g id="patch_78">
    <path clip-path="url(#p51da14ac28)" d="M 372.757576 441 
L 376.515152 441 
L 376.515152 320.825394 
L 372.757576 320.825394 
z
" style="fill:#ff8c00;stroke:#000000;stroke-linejoin:miter;stroke-width:0.3;"/>
   </g>
   <g id="patch_79">
    <path clip-path="url(#p51da14ac28)" d="M 376.515152 441 
L 380.272727 441 
L 380.272727 322.829364 
L 376.515152 322.829364 
z
" style="fill:#a52a2a;stroke:#000000;stroke-linejoin:miter;stroke-width:0.3;"/>
   </g>
   <g id="patch_80">
    <path clip-path="url(#p51da14ac28)" d="M 380.272727 441 
L 384.030303 441 
L 384.030303 323.399902 
L 380.272727 323.399902 
z
" style="fill:#a52a2a;stroke:#000000;stroke-linejoin:miter;stroke-width:0.3;"/>
   </g>
   <g id="patch_81">
    <path clip-path="url(#p51da14ac28)" d="M 384.030303 441 
L 387.787879 441 
L 387.787879 324.081079 
L 384.030303 324.081079 
z
" style="fill:#a52a2a;stroke:#000000;stroke-linejoin:miter;stroke-width:0.3;"/>
   </g>
   <g id="patch_82">
    <path clip-path="url(#p51da14ac28)" d="M 387.787879 441 
L 391.545455 441 
L 391.545455 324.296412 
L 387.787879 324.296412 
z
" style="fill:#00bfff;stroke:#000000;stroke-linejoin:miter;stroke-width:0.3;"/>
   </g>
   <g id="patch_83">
    <path clip-path="url(#p51da14ac28)" d="M 391.545455 441 
L 395.30303 441 
L 395.30303 326.909717 
L 391.545455 326.909717 
z
" style="fill:#ff8c00;stroke:#000000;stroke-linejoin:miter;stroke-width:0.3;"/>
   </g>
   <g id="patch_84">
    <path clip-path="url(#p51da14ac28)" d="M 395.30303 441 
L 399.060606 441 
L 399.060606 329.42982 
L 395.30303 329.42982 
z
" style="fill:#a52a2a;stroke:#000000;stroke-linejoin:miter;stroke-width:0.3;"/>
   </g>
   <g id="patch_85">
    <path clip-path="url(#p51da14ac28)" d="M 399.060606 441 
L 402.818182 441 
L 402.818182 329.630433 
L 399.060606 329.630433 
z
" style="fill:#a52a2a;stroke:#000000;stroke-linejoin:miter;stroke-width:0.3;"/>
   </g>
   <g id="patch_86">
    <path clip-path="url(#p51da14ac28)" d="M 402.818182 441 
L 406.575758 441 
L 406.575758 330.195638 
L 402.818182 330.195638 
z
" style="fill:#a52a2a;stroke:#000000;stroke-linejoin:miter;stroke-width:0.3;"/>
   </g>
   <g id="patch_87">
    <path clip-path="url(#p51da14ac28)" d="M 406.575758 441 
L 410.333333 441 
L 410.333333 332.099829 
L 406.575758 332.099829 
z
" style="fill:#a52a2a;stroke:#000000;stroke-linejoin:miter;stroke-width:0.3;"/>
   </g>
   <g id="patch_88">
    <path clip-path="url(#p51da14ac28)" d="M 410.333333 441 
L 414.090909 441 
L 414.090909 332.460555 
L 410.333333 332.460555 
z
" style="fill:#a52a2a;stroke:#000000;stroke-linejoin:miter;stroke-width:0.3;"/>
   </g>
   <g id="patch_89">
    <path clip-path="url(#p51da14ac28)" d="M 414.090909 441 
L 417.848485 441 
L 417.848485 332.747397 
L 414.090909 332.747397 
z
" style="fill:#a52a2a;stroke:#000000;stroke-linejoin:miter;stroke-width:0.3;"/>
   </g>
   <g id="patch_90">
    <path clip-path="url(#p51da14ac28)" d="M 417.848485 441 
L 421.606061 441 
L 421.606061 333.011308 
L 417.848485 333.011308 
z
" style="fill:#a52a2a;stroke:#000000;stroke-linejoin:miter;stroke-width:0.3;"/>
   </g>
   <g id="patch_91">
    <path clip-path="url(#p51da14ac28)" d="M 421.606061 441 
L 425.363636 441 
L 425.363636 333.244588 
L 421.606061 333.244588 
z
" style="fill:#a52a2a;stroke:#000000;stroke-linejoin:miter;stroke-width:0.3;"/>
   </g>
   <g id="patch_92">
    <path clip-path="url(#p51da14ac28)" d="M 425.363636 441 
L 429.121212 441 
L 429.121212 333.943641 
L 425.363636 333.943641 
z
" style="fill:#a52a2a;stroke:#000000;stroke-linejoin:miter;stroke-width:0.3;"/>
   </g>
   <g id="patch_93">
    <path clip-path="url(#p51da14ac28)" d="M 429.121212 441 
L 432.878788 441 
L 432.878788 333.955775 
L 429.121212 333.955775 
z
" style="fill:#a52a2a;stroke:#000000;stroke-linejoin:miter;stroke-width:0.3;"/>
   </g>
   <g id="patch_94">
    <path clip-path="url(#p51da14ac28)" d="M 432.878788 441 
L 436.636364 441 
L 436.636364 335.624502 
L 432.878788 335.624502 
z
" style="fill:#00bfff;stroke:#000000;stroke-linejoin:miter;stroke-width:0.3;"/>
   </g>
   <g id="patch_95">
    <path clip-path="url(#p51da14ac28)" d="M 436.636364 441 
L 440.393939 441 
L 440.393939 335.879914 
L 436.636364 335.879914 
z
" style="fill:#a52a2a;stroke:#000000;stroke-linejoin:miter;stroke-width:0.3;"/>
   </g>
   <g id="patch_96">
    <path clip-path="url(#p51da14ac28)" d="M 440.393939 441 
L 444.151515 441 
L 444.151515 336.99942 
L 440.393939 336.99942 
z
" style="fill:#a52a2a;stroke:#000000;stroke-linejoin:miter;stroke-width:0.3;"/>
   </g>
   <g id="patch_97">
    <path clip-path="url(#p51da14ac28)" d="M 444.151515 441 
L 447.909091 441 
L 447.909091 337.677064 
L 444.151515 337.677064 
z
" style="fill:#a52a2a;stroke:#000000;stroke-linejoin:miter;stroke-width:0.3;"/>
   </g>
   <g id="patch_98">
    <path clip-path="url(#p51da14ac28)" d="M 447.909091 441 
L 451.666667 441 
L 451.666667 338.051098 
L 447.909091 338.051098 
z
" style="fill:#a52a2a;stroke:#000000;stroke-linejoin:miter;stroke-width:0.3;"/>
   </g>
   <g id="patch_99">
    <path clip-path="url(#p51da14ac28)" d="M 451.666667 441 
L 455.424242 441 
L 455.424242 338.183011 
L 451.666667 338.183011 
z
" style="fill:#a52a2a;stroke:#000000;stroke-linejoin:miter;stroke-width:0.3;"/>
   </g>
   <g id="patch_100">
    <path clip-path="url(#p51da14ac28)" d="M 455.424242 441 
L 459.181818 441 
L 459.181818 338.705743 
L 455.424242 338.705743 
z
" style="fill:#a52a2a;stroke:#000000;stroke-linejoin:miter;stroke-width:0.3;"/>
   </g>
   <g id="patch_101">
    <path clip-path="url(#p51da14ac28)" d="M 459.181818 441 
L 462.939394 441 
L 462.939394 339.042395 
L 459.181818 339.042395 
z
" style="fill:#00bfff;stroke:#000000;stroke-linejoin:miter;stroke-width:0.3;"/>
   </g>
   <g id="patch_102">
    <path clip-path="url(#p51da14ac28)" d="M 462.939394 441 
L 466.69697 441 
L 466.69697 340.112985 
L 462.939394 340.112985 
z
" style="fill:#00bfff;stroke:#000000;stroke-linejoin:miter;stroke-width:0.3;"/>
   </g>
   <g id="patch_103">
    <path clip-path="url(#p51da14ac28)" d="M 466.69697 441 
L 470.454545 441 
L 470.454545 340.237436 
L 466.69697 340.237436 
z
" style="fill:#a52a2a;stroke:#000000;stroke-linejoin:miter;stroke-width:0.3;"/>
   </g>
   <g id="patch_104">
    <path clip-path="url(#p51da14ac28)" d="M 470.454545 441 
L 474.212121 441 
L 474.212121 340.541166 
L 470.454545 340.541166 
z
" style="fill:#a52a2a;stroke:#000000;stroke-linejoin:miter;stroke-width:0.3;"/>
   </g>
   <g id="patch_105">
    <path clip-path="url(#p51da14ac28)" d="M 474.212121 441 
L 477.969697 441 
L 477.969697 340.827428 
L 474.212121 340.827428 
z
" style="fill:#ff8c00;stroke:#000000;stroke-linejoin:miter;stroke-width:0.3;"/>
   </g>
   <g id="patch_106">
    <path clip-path="url(#p51da14ac28)" d="M 477.969697 441 
L 481.727273 441 
L 481.727273 342.414759 
L 477.969697 342.414759 
z
" style="fill:#a52a2a;stroke:#000000;stroke-linejoin:miter;stroke-width:0.3;"/>
   </g>
   <g id="patch_107">
    <path clip-path="url(#p51da14ac28)" d="M 481.727273 441 
L 485.484848 441 
L 485.484848 342.697992 
L 481.727273 342.697992 
z
" style="fill:#a52a2a;stroke:#000000;stroke-linejoin:miter;stroke-width:0.3;"/>
   </g>
   <g id="patch_108">
    <path clip-path="url(#p51da14ac28)" d="M 485.484848 441 
L 489.242424 441 
L 489.242424 343.112866 
L 485.484848 343.112866 
z
" style="fill:#a52a2a;stroke:#000000;stroke-linejoin:miter;stroke-width:0.3;"/>
   </g>
   <g id="patch_109">
    <path clip-path="url(#p51da14ac28)" d="M 489.242424 441 
L 493 441 
L 493 343.893462 
L 489.242424 343.893462 
z
" style="fill:#a52a2a;stroke:#000000;stroke-linejoin:miter;stroke-width:0.3;"/>
   </g>
   <g id="patch_110">
    <path clip-path="url(#p51da14ac28)" d="M 493 441 
L 496.757576 441 
L 496.757576 344.279142 
L 493 344.279142 
z
" style="fill:#a52a2a;stroke:#000000;stroke-linejoin:miter;stroke-width:0.3;"/>
   </g>
   <g id="patch_111">
    <path clip-path="url(#p51da14ac28)" d="M 496.757576 441 
L 500.515152 441 
L 500.515152 344.288731 
L 496.757576 344.288731 
z
" style="fill:#a52a2a;stroke:#000000;stroke-linejoin:miter;stroke-width:0.3;"/>
   </g>
   <g id="patch_112">
    <path clip-path="url(#p51da14ac28)" d="M 500.515152 441 
L 504.272727 441 
L 504.272727 345.27296 
L 500.515152 345.27296 
z
" style="fill:#ff8c00;stroke:#000000;stroke-linejoin:miter;stroke-width:0.3;"/>
   </g>
   <g id="patch_113">
    <path clip-path="url(#p51da14ac28)" d="M 504.272727 441 
L 508.030303 441 
L 508.030303 345.524723 
L 504.272727 345.524723 
z
" style="fill:#a52a2a;stroke:#000000;stroke-linejoin:miter;stroke-width:0.3;"/>
   </g>
   <g id="patch_114">
    <path clip-path="url(#p51da14ac28)" d="M 508.030303 441 
L 511.787879 441 
L 511.787879 346.216004 
L 508.030303 346.216004 
z
" style="fill:#a52a2a;stroke:#000000;stroke-linejoin:miter;stroke-width:0.3;"/>
   </g>
   <g id="patch_115">
    <path clip-path="url(#p51da14ac28)" d="M 511.787879 441 
L 515.545455 441 
L 515.545455 347.684928 
L 511.787879 347.684928 
z
" style="fill:#a52a2a;stroke:#000000;stroke-linejoin:miter;stroke-width:0.3;"/>
   </g>
   <g id="patch_116">
    <path clip-path="url(#p51da14ac28)" d="M 515.545455 441 
L 519.30303 441 
L 519.30303 348.567623 
L 515.545455 348.567623 
z
" style="fill:#a52a2a;stroke:#000000;stroke-linejoin:miter;stroke-width:0.3;"/>
   </g>
   <g id="patch_117">
    <path clip-path="url(#p51da14ac28)" d="M 519.30303 441 
L 523.060606 441 
L 523.060606 351.255444 
L 519.30303 351.255444 
z
" style="fill:#a52a2a;stroke:#000000;stroke-linejoin:miter;stroke-width:0.3;"/>
   </g>
   <g id="patch_118">
    <path clip-path="url(#p51da14ac28)" d="M 523.060606 441 
L 526.818182 441 
L 526.818182 351.733398 
L 523.060606 351.733398 
z
" style="fill:#a52a2a;stroke:#000000;stroke-linejoin:miter;stroke-width:0.3;"/>
   </g>
   <g id="patch_119">
    <path clip-path="url(#p51da14ac28)" d="M 526.818182 441 
L 530.575758 441 
L 530.575758 352.154852 
L 526.818182 352.154852 
z
" style="fill:#a52a2a;stroke:#000000;stroke-linejoin:miter;stroke-width:0.3;"/>
   </g>
   <g id="patch_120">
    <path clip-path="url(#p51da14ac28)" d="M 530.575758 441 
L 534.333333 441 
L 534.333333 352.246248 
L 530.575758 352.246248 
z
" style="fill:#a52a2a;stroke:#000000;stroke-linejoin:miter;stroke-width:0.3;"/>
   </g>
   <g id="patch_121">
    <path clip-path="url(#p51da14ac28)" d="M 534.333333 441 
L 538.090909 441 
L 538.090909 353.087915 
L 534.333333 353.087915 
z
" style="fill:#a52a2a;stroke:#000000;stroke-linejoin:miter;stroke-width:0.3;"/>
   </g>
   <g id="patch_122">
    <path clip-path="url(#p51da14ac28)" d="M 538.090909 441 
L 541.848485 441 
L 541.848485 354.330138 
L 538.090909 354.330138 
z
" style="fill:#a52a2a;stroke:#000000;stroke-linejoin:miter;stroke-width:0.3;"/>
   </g>
   <g id="patch_123">
    <path clip-path="url(#p51da14ac28)" d="M 541.848485 441 
L 545.606061 441 
L 545.606061 355.628071 
L 541.848485 355.628071 
z
" style="fill:#a52a2a;stroke:#000000;stroke-linejoin:miter;stroke-width:0.3;"/>
   </g>
   <g id="patch_124">
    <path clip-path="url(#p51da14ac28)" d="M 545.606061 441 
L 549.363636 441 
L 549.363636 356.032296 
L 545.606061 356.032296 
z
" style="fill:#a52a2a;stroke:#000000;stroke-linejoin:miter;stroke-width:0.3;"/>
   </g>
   <g id="patch_125">
    <path clip-path="url(#p51da14ac28)" d="M 549.363636 441 
L 553.121212 441 
L 553.121212 356.701621 
L 549.363636 356.701621 
z
" style="fill:#a52a2a;stroke:#000000;stroke-linejoin:miter;stroke-width:0.3;"/>
   </g>
   <g id="patch_126">
    <path clip-path="url(#p51da14ac28)" d="M 553.121212 441 
L 556.878788 441 
L 556.878788 357.215269 
L 553.121212 357.215269 
z
" style="fill:#a52a2a;stroke:#000000;stroke-linejoin:miter;stroke-width:0.3;"/>
   </g>
   <g id="patch_127">
    <path clip-path="url(#p51da14ac28)" d="M 556.878788 441 
L 560.636364 441 
L 560.636364 357.535678 
L 556.878788 357.535678 
z
" style="fill:#a52a2a;stroke:#000000;stroke-linejoin:miter;stroke-width:0.3;"/>
   </g>
   <g id="patch_128">
    <path clip-path="url(#p51da14ac28)" d="M 560.636364 441 
L 564.393939 441 
L 564.393939 359.579879 
L 560.636364 359.579879 
z
" style="fill:#a52a2a;stroke:#000000;stroke-linejoin:miter;stroke-width:0.3;"/>
   </g>
   <g id="patch_129">
    <path clip-path="url(#p51da14ac28)" d="M 564.393939 441 
L 568.151515 441 
L 568.151515 359.689529 
L 564.393939 359.689529 
z
" style="fill:#a52a2a;stroke:#000000;stroke-linejoin:miter;stroke-width:0.3;"/>
   </g>
   <g id="patch_130">
    <path clip-path="url(#p51da14ac28)" d="M 568.151515 441 
L 571.909091 441 
L 571.909091 360.503982 
L 568.151515 360.503982 
z
" style="fill:#a52a2a;stroke:#000000;stroke-linejoin:miter;stroke-width:0.3;"/>
   </g>
   <g id="patch_131">
    <path clip-path="url(#p51da14ac28)" d="M 571.909091 441 
L 575.666667 441 
L 575.666667 362.184174 
L 571.909091 362.184174 
z
" style="fill:#a52a2a;stroke:#000000;stroke-linejoin:miter;stroke-width:0.3;"/>
   </g>
   <g id="patch_132">
    <path clip-path="url(#p51da14ac28)" d="M 575.666667 441 
L 579.424242 441 
L 579.424242 366.260414 
L 575.666667 366.260414 
z
" style="fill:#a52a2a;stroke:#000000;stroke-linejoin:miter;stroke-width:0.3;"/>
   </g>
   <g id="patch_133">
    <path clip-path="url(#p51da14ac28)" d="M 579.424242 441 
L 583.181818 441 
L 583.181818 368.818855 
L 579.424242 368.818855 
z
" style="fill:#a52a2a;stroke:#000000;stroke-linejoin:miter;stroke-width:0.3;"/>
   </g>
   <g id="patch_134">
    <path clip-path="url(#p51da14ac28)" d="M 583.181818 441 
L 586.939394 441 
L 586.939394 369.326844 
L 583.181818 369.326844 
z
" style="fill:#a52a2a;stroke:#000000;stroke-linejoin:miter;stroke-width:0.3;"/>
   </g>
   <g id="patch_135">
    <path clip-path="url(#p51da14ac28)" d="M 586.939394 441 
L 590.69697 441 
L 590.69697 372.400259 
L 586.939394 372.400259 
z
" style="fill:#a52a2a;stroke:#000000;stroke-linejoin:miter;stroke-width:0.3;"/>
   </g>
   <g id="patch_136">
    <path clip-path="url(#p51da14ac28)" d="M 590.69697 441 
L 594.454545 441 
L 594.454545 373.121917 
L 590.69697 373.121917 
z
" style="fill:#a52a2a;stroke:#000000;stroke-linejoin:miter;stroke-width:0.3;"/>
   </g>
   <g id="patch_137">
    <path clip-path="url(#p51da14ac28)" d="M 594.454545 441 
L 598.212121 441 
L 598.212121 376.174689 
L 594.454545 376.174689 
z
" style="fill:#a52a2a;stroke:#000000;stroke-linejoin:miter;stroke-width:0.3;"/>
   </g>
   <g id="patch_138">
    <path clip-path="url(#p51da14ac28)" d="M 598.212121 441 
L 601.969697 441 
L 601.969697 376.733839 
L 598.212121 376.733839 
z
" style="fill:#a52a2a;stroke:#000000;stroke-linejoin:miter;stroke-width:0.3;"/>
   </g>
   <g id="patch_139">
    <path clip-path="url(#p51da14ac28)" d="M 601.969697 441 
L 605.727273 441 
L 605.727273 379.03135 
L 601.969697 379.03135 
z
" style="fill:#a52a2a;stroke:#000000;stroke-linejoin:miter;stroke-width:0.3;"/>
   </g>
   <g id="patch_140">
    <path clip-path="url(#p51da14ac28)" d="M 605.727273 441 
L 609.484848 441 
L 609.484848 380.332125 
L 605.727273 380.332125 
z
" style="fill:#a52a2a;stroke:#000000;stroke-linejoin:miter;stroke-width:0.3;"/>
   </g>
   <g id="patch_141">
    <path clip-path="url(#p51da14ac28)" d="M 609.484848 441 
L 613.242424 441 
L 613.242424 380.591363 
L 609.484848 380.591363 
z
" style="fill:#a52a2a;stroke:#000000;stroke-linejoin:miter;stroke-width:0.3;"/>
   </g>
   <g id="patch_142">
    <path clip-path="url(#p51da14ac28)" d="M 613.242424 441 
L 617 441 
L 617 381.459828 
L 613.242424 381.459828 
z
" style="fill:#a52a2a;stroke:#000000;stroke-linejoin:miter;stroke-width:0.3;"/>
   </g>
   <g id="patch_143">
    <path clip-path="url(#p51da14ac28)" d="M 617 441 
L 620.757576 441 
L 620.757576 383.881504 
L 617 383.881504 
z
" style="fill:#a52a2a;stroke:#000000;stroke-linejoin:miter;stroke-width:0.3;"/>
   </g>
   <g id="patch_144">
    <path clip-path="url(#p51da14ac28)" d="M 620.757576 441 
L 624.515152 441 
L 624.515152 394.901144 
L 620.757576 394.901144 
z
" style="fill:#ba55d3;stroke:#000000;stroke-linejoin:miter;stroke-width:0.3;"/>
   </g>
   <g id="patch_145">
    <path clip-path="url(#p51da14ac28)" d="M 624.515152 441 
L 628.272727 441 
L 628.272727 395.04637 
L 624.515152 395.04637 
z
" style="fill:#a52a2a;stroke:#000000;stroke-linejoin:miter;stroke-width:0.3;"/>
   </g>
   <g id="patch_146">
    <path clip-path="url(#p51da14ac28)" d="M 628.272727 441 
L 632.030303 441 
L 632.030303 410.616623 
L 628.272727 410.616623 
z
" style="fill:#ba55d3;stroke:#000000;stroke-linejoin:miter;stroke-width:0.3;"/>
   </g>
   <g id="patch_147">
    <path clip-path="url(#p51da14ac28)" d="M 632.030303 441 
L 635.787879 441 
L 635.787879 436.015339 
L 632.030303 436.015339 
z
" style="fill:#ba55d3;stroke:#000000;stroke-linejoin:miter;stroke-width:0.3;"/>
   </g>
   <g id="patch_148">
    <path clip-path="url(#p51da14ac28)" d="M 635.787879 441 
L 639.545455 441 
L 639.545455 441 
L 635.787879 441 
z
" style="fill:#a52a2a;stroke:#000000;stroke-linejoin:miter;stroke-width:0.3;"/>
   </g>
   <g id="patch_149">
    <path clip-path="url(#p51da14ac28)" d="M 639.545455 441 
L 643.30303 441 
L 643.30303 441 
L 639.545455 441 
z
" style="fill:#a52a2a;stroke:#000000;stroke-linejoin:miter;stroke-width:0.3;"/>
   </g>
   <g id="patch_150">
    <path clip-path="url(#p51da14ac28)" d="M 643.30303 441 
L 647.060606 441 
L 647.060606 441 
L 643.30303 441 
z
" style="fill:#a52a2a;stroke:#000000;stroke-linejoin:miter;stroke-width:0.3;"/>
   </g>
   <g id="patch_151">
    <path d="M 90 50.4 
L 648 50.4 
" style="fill:none;stroke:#262626;stroke-linecap:square;stroke-linejoin:miter;stroke-width:1.25;"/>
   </g>
   <g id="patch_152">
    <path d="M 648 441 
L 648 50.4 
" style="fill:none;stroke:#262626;stroke-linecap:square;stroke-linejoin:miter;stroke-width:1.25;"/>
   </g>
   <g id="patch_153">
    <path d="M 90 441 
L 648 441 
" style="fill:none;stroke:#262626;stroke-linecap:square;stroke-linejoin:miter;stroke-width:1.25;"/>
   </g>
   <g id="patch_154">
    <path d="M 90 441 
L 90 50.4 
" style="fill:none;stroke:#262626;stroke-linecap:square;stroke-linejoin:miter;stroke-width:1.25;"/>
   </g>
  </g>
 </g>
 <defs>
  <clipPath id="p51da14ac28">
   <rect height="390.6" width="558.0" x="90.0" y="50.4"/>
  </clipPath>
 </defs>
</svg>
