<?xml version="1.0" encoding="utf-8" standalone="no"?>
<!DOCTYPE svg PUBLIC "-//W3C//DTD SVG 1.1//EN"
  "http://www.w3.org/Graphics/SVG/1.1/DTD/svg11.dtd">
<!-- Created with matplotlib (http://matplotlib.org/) -->
<svg height="504pt" version="1.1" viewBox="0 0 720 504" width="720pt" xmlns="http://www.w3.org/2000/svg" xmlns:xlink="http://www.w3.org/1999/xlink">
 <defs>
  <style type="text/css">
*{stroke-linecap:butt;stroke-linejoin:round;stroke-miterlimit:100000;}
  </style>
 </defs>
 <g id="figure_1">
  <g id="patch_1">
   <path d="M 0 504 
L 720 504 
L 720 0 
L 0 0 
z
" style="fill:none;"/>
  </g>
  <g id="axes_1">
   <g id="patch_2">
    <path d="M 90 441 
L 648 441 
L 648 50.4 
L 90 50.4 
z
" style="fill:none;"/>
   </g>
   <g id="matplotlib.axis_1">
    <g id="xtick_1">
     <g id="line2d_1"/>
     <g id="line2d_2"/>
     <g id="text_1">
      <!-- 0 -->
      <defs>
       <path d="M 51.703125 34.421875 
Q 51.703125 24.515625 49.828125 17.75 
Q 47.953125 10.984375 44.703125 6.8125 
Q 41.453125 2.640625 37.0625 0.828125 
Q 32.671875 -0.984375 27.6875 -0.984375 
Q 22.65625 -0.984375 18.3125 0.828125 
Q 13.96875 2.640625 10.765625 6.78125 
Q 7.5625 10.9375 5.734375 17.703125 
Q 3.90625 24.46875 3.90625 34.421875 
Q 3.90625 44.828125 5.734375 51.640625 
Q 7.5625 58.453125 10.78125 62.5 
Q 14.015625 66.546875 18.40625 68.1875 
Q 22.796875 69.828125 27.984375 69.828125 
Q 32.90625 69.828125 37.21875 68.1875 
Q 41.546875 66.546875 44.765625 62.5 
Q 48 58.453125 49.84375 51.640625 
Q 51.703125 44.828125 51.703125 34.421875 
M 42.78125 34.421875 
Q 42.78125 42.625 41.796875 48.0625 
Q 40.828125 53.515625 38.921875 56.765625 
Q 37.015625 60.015625 34.25 61.359375 
Q 31.5 62.703125 27.984375 62.703125 
Q 24.265625 62.703125 21.4375 61.328125 
Q 18.609375 59.96875 16.671875 56.71875 
Q 14.75 53.46875 13.765625 48.015625 
Q 12.796875 42.578125 12.796875 34.421875 
Q 12.796875 26.515625 13.796875 21.09375 
Q 14.796875 15.671875 16.71875 12.375 
Q 18.65625 9.078125 21.4375 7.640625 
Q 24.21875 6.203125 27.78125 6.203125 
Q 31.25 6.203125 34.03125 7.640625 
Q 36.8125 9.078125 38.734375 12.375 
Q 40.671875 15.671875 41.71875 21.09375 
Q 42.78125 26.515625 42.78125 34.421875 
" id="LiberationSans-30"/>
      </defs>
      <g style="fill:#262626;" transform="translate(90.0568193856 455.246875)scale(0.1 -0.1)">
       <use xlink:href="#LiberationSans-30"/>
      </g>
     </g>
    </g>
    <g id="xtick_2">
     <g id="line2d_3"/>
     <g id="line2d_4"/>
     <g id="text_2">
      <!-- 10 -->
      <defs>
       <path d="M 7.625 0 
L 7.625 7.46875 
L 25.140625 7.46875 
L 25.140625 60.40625 
L 9.625 49.3125 
L 9.625 57.625 
L 25.875 68.796875 
L 33.984375 68.796875 
L 33.984375 7.46875 
L 50.734375 7.46875 
L 50.734375 0 
z
" id="LiberationSans-31"/>
      </defs>
      <g style="fill:#262626;" transform="translate(125.10685911 455.246875)scale(0.1 -0.1)">
       <use xlink:href="#LiberationSans-31"/>
       <use x="55.615234375" xlink:href="#LiberationSans-30"/>
      </g>
     </g>
    </g>
    <g id="xtick_3">
     <g id="line2d_5"/>
     <g id="line2d_6"/>
     <g id="text_3">
      <!-- 20 -->
      <defs>
       <path d="M 5.03125 0 
L 5.03125 6.203125 
Q 7.515625 11.921875 11.109375 16.28125 
Q 14.703125 20.65625 18.65625 24.1875 
Q 22.609375 27.734375 26.484375 30.765625 
Q 30.375 33.796875 33.5 36.8125 
Q 36.625 39.84375 38.546875 43.15625 
Q 40.484375 46.484375 40.484375 50.6875 
Q 40.484375 53.609375 39.59375 55.828125 
Q 38.71875 58.0625 37.0625 59.5625 
Q 35.40625 61.078125 33.078125 61.828125 
Q 30.765625 62.59375 27.9375 62.59375 
Q 25.296875 62.59375 22.96875 61.859375 
Q 20.65625 61.140625 18.84375 59.671875 
Q 17.046875 58.203125 15.890625 56.03125 
Q 14.75 53.859375 14.40625 50.984375 
L 5.421875 51.8125 
Q 5.859375 55.515625 7.46875 58.78125 
Q 9.078125 62.0625 11.90625 64.53125 
Q 14.75 67 18.71875 68.40625 
Q 22.703125 69.828125 27.9375 69.828125 
Q 33.0625 69.828125 37.0625 68.609375 
Q 41.0625 67.390625 43.8125 64.984375 
Q 46.578125 62.59375 48.046875 59.078125 
Q 49.515625 55.5625 49.515625 50.984375 
Q 49.515625 47.515625 48.265625 44.390625 
Q 47.015625 41.265625 44.9375 38.421875 
Q 42.875 35.59375 40.140625 32.953125 
Q 37.40625 30.328125 34.421875 27.8125 
Q 31.453125 25.296875 28.421875 22.828125 
Q 25.390625 20.359375 22.71875 17.859375 
Q 20.0625 15.375 17.96875 12.8125 
Q 15.875 10.25 14.703125 7.46875 
L 50.59375 7.46875 
L 50.59375 0 
z
" id="LiberationSans-32"/>
      </defs>
      <g style="fill:#262626;" transform="translate(162.937367585 455.246875)scale(0.1 -0.1)">
       <use xlink:href="#LiberationSans-32"/>
       <use x="55.615234375" xlink:href="#LiberationSans-30"/>
      </g>
     </g>
    </g>
    <g id="xtick_4">
     <g id="line2d_7"/>
     <g id="line2d_8"/>
     <g id="text_4">
      <!-- 30 -->
      <defs>
       <path d="M 51.21875 19 
Q 51.21875 14.265625 49.671875 10.546875 
Q 48.140625 6.84375 45.1875 4.265625 
Q 42.234375 1.703125 37.859375 0.359375 
Q 33.5 -0.984375 27.875 -0.984375 
Q 21.484375 -0.984375 17.109375 0.609375 
Q 12.75 2.203125 9.90625 4.8125 
Q 7.078125 7.421875 5.65625 10.765625 
Q 4.25 14.109375 3.8125 17.671875 
L 12.890625 18.5 
Q 13.28125 15.765625 14.328125 13.515625 
Q 15.375 11.28125 17.1875 9.671875 
Q 19 8.0625 21.625 7.171875 
Q 24.265625 6.296875 27.875 6.296875 
Q 34.515625 6.296875 38.296875 9.5625 
Q 42.09375 12.84375 42.09375 19.28125 
Q 42.09375 23.09375 40.40625 25.40625 
Q 38.71875 27.734375 36.203125 29.03125 
Q 33.6875 30.328125 30.734375 30.765625 
Q 27.78125 31.203125 25.296875 31.203125 
L 20.3125 31.203125 
L 20.3125 38.8125 
L 25.09375 38.8125 
Q 27.59375 38.8125 30.265625 39.328125 
Q 32.953125 39.84375 35.171875 41.1875 
Q 37.40625 42.53125 38.84375 44.828125 
Q 40.28125 47.125 40.28125 50.6875 
Q 40.28125 56.203125 37.03125 59.390625 
Q 33.796875 62.59375 27.390625 62.59375 
Q 21.578125 62.59375 17.984375 59.609375 
Q 14.40625 56.640625 13.8125 51.21875 
L 4.984375 51.90625 
Q 5.515625 56.453125 7.46875 59.8125 
Q 9.421875 63.1875 12.421875 65.40625 
Q 15.4375 67.625 19.28125 68.71875 
Q 23.140625 69.828125 27.484375 69.828125 
Q 33.25 69.828125 37.390625 68.375 
Q 41.546875 66.9375 44.1875 64.46875 
Q 46.828125 62.015625 48.0625 58.6875 
Q 49.3125 55.375 49.3125 51.609375 
Q 49.3125 48.578125 48.484375 45.9375 
Q 47.65625 43.3125 45.890625 41.203125 
Q 44.140625 39.109375 41.421875 37.59375 
Q 38.71875 36.078125 34.90625 35.296875 
L 34.90625 35.109375 
Q 39.0625 34.671875 42.140625 33.21875 
Q 45.21875 31.78125 47.21875 29.625 
Q 49.21875 27.484375 50.21875 24.75 
Q 51.21875 22.015625 51.21875 19 
" id="LiberationSans-33"/>
      </defs>
      <g style="fill:#262626;" transform="translate(200.767876059 455.246875)scale(0.1 -0.1)">
       <use xlink:href="#LiberationSans-33"/>
       <use x="55.615234375" xlink:href="#LiberationSans-30"/>
      </g>
     </g>
    </g>
    <g id="xtick_5">
     <g id="line2d_9"/>
     <g id="line2d_10"/>
     <g id="text_5">
      <!-- 40 -->
      <defs>
       <path d="M 43.015625 15.578125 
L 43.015625 0 
L 34.71875 0 
L 34.71875 15.578125 
L 2.296875 15.578125 
L 2.296875 22.40625 
L 33.796875 68.796875 
L 43.015625 68.796875 
L 43.015625 22.515625 
L 52.6875 22.515625 
L 52.6875 15.578125 
z
M 34.71875 58.890625 
Q 34.625 58.640625 34.234375 57.9375 
Q 33.84375 57.234375 33.34375 56.34375 
Q 32.859375 55.46875 32.34375 54.5625 
Q 31.84375 53.65625 31.453125 53.078125 
L 13.8125 27.09375 
Q 13.578125 26.703125 13.109375 26.0625 
Q 12.640625 25.4375 12.15625 24.78125 
Q 11.671875 24.125 11.171875 23.484375 
Q 10.6875 22.859375 10.40625 22.515625 
L 34.71875 22.515625 
z
" id="LiberationSans-34"/>
      </defs>
      <g style="fill:#262626;" transform="translate(238.598384534 455.246875)scale(0.1 -0.1)">
       <use xlink:href="#LiberationSans-34"/>
       <use x="55.615234375" xlink:href="#LiberationSans-30"/>
      </g>
     </g>
    </g>
    <g id="xtick_6">
     <g id="line2d_11"/>
     <g id="line2d_12"/>
     <g id="text_6">
      <!-- 50 -->
      <defs>
       <path d="M 51.421875 22.40625 
Q 51.421875 17.234375 49.859375 12.9375 
Q 48.296875 8.640625 45.21875 5.53125 
Q 42.140625 2.4375 37.578125 0.71875 
Q 33.015625 -0.984375 27 -0.984375 
Q 21.578125 -0.984375 17.546875 0.28125 
Q 13.53125 1.5625 10.734375 3.78125 
Q 7.953125 6 6.3125 8.984375 
Q 4.6875 11.96875 4 15.375 
L 12.890625 16.40625 
Q 13.421875 14.453125 14.390625 12.625 
Q 15.375 10.796875 17.0625 9.34375 
Q 18.75 7.90625 21.21875 7.046875 
Q 23.6875 6.203125 27.203125 6.203125 
Q 30.609375 6.203125 33.390625 7.25 
Q 36.1875 8.296875 38.15625 10.34375 
Q 40.140625 12.40625 41.203125 15.375 
Q 42.28125 18.359375 42.28125 22.21875 
Q 42.28125 25.390625 41.25 28.046875 
Q 40.234375 30.71875 38.328125 32.640625 
Q 36.421875 34.578125 33.65625 35.640625 
Q 30.90625 36.71875 27.390625 36.71875 
Q 25.203125 36.71875 23.34375 36.328125 
Q 21.484375 35.9375 19.890625 35.25 
Q 18.3125 34.578125 17.015625 33.671875 
Q 15.71875 32.765625 14.59375 31.78125 
L 6 31.78125 
L 8.296875 68.796875 
L 47.40625 68.796875 
L 47.40625 61.328125 
L 16.3125 61.328125 
L 14.984375 39.5 
Q 17.328125 41.3125 20.84375 42.59375 
Q 24.359375 43.890625 29.203125 43.890625 
Q 34.328125 43.890625 38.421875 42.328125 
Q 42.53125 40.765625 45.40625 37.90625 
Q 48.296875 35.0625 49.859375 31.109375 
Q 51.421875 27.15625 51.421875 22.40625 
" id="LiberationSans-35"/>
      </defs>
      <g style="fill:#262626;" transform="translate(276.428893008 455.246875)scale(0.1 -0.1)">
       <use xlink:href="#LiberationSans-35"/>
       <use x="55.615234375" xlink:href="#LiberationSans-30"/>
      </g>
     </g>
    </g>
    <g id="xtick_7">
     <g id="line2d_13"/>
     <g id="line2d_14"/>
     <g id="text_7">
      <!-- 60 -->
      <defs>
       <path d="M 51.21875 22.515625 
Q 51.21875 17.328125 49.78125 13 
Q 48.34375 8.6875 45.53125 5.578125 
Q 42.71875 2.484375 38.5625 0.75 
Q 34.421875 -0.984375 29 -0.984375 
Q 23 -0.984375 18.5 1.3125 
Q 14.015625 3.609375 11.03125 7.921875 
Q 8.0625 12.25 6.5625 18.53125 
Q 5.078125 24.8125 5.078125 32.8125 
Q 5.078125 42 6.765625 48.921875 
Q 8.453125 55.859375 11.625 60.5 
Q 14.796875 65.140625 19.359375 67.484375 
Q 23.921875 69.828125 29.6875 69.828125 
Q 33.203125 69.828125 36.28125 69.09375 
Q 39.359375 68.359375 41.875 66.71875 
Q 44.390625 65.09375 46.28125 62.40625 
Q 48.1875 59.71875 49.3125 55.8125 
L 40.921875 54.296875 
Q 39.546875 58.734375 36.546875 60.71875 
Q 33.546875 62.703125 29.59375 62.703125 
Q 25.984375 62.703125 23.046875 60.984375 
Q 20.125 59.28125 18.0625 55.875 
Q 16.015625 52.484375 14.90625 47.359375 
Q 13.8125 42.234375 13.8125 35.40625 
Q 16.21875 39.84375 20.5625 42.15625 
Q 24.90625 44.484375 30.515625 44.484375 
Q 35.203125 44.484375 39.015625 42.96875 
Q 42.828125 41.453125 45.53125 38.59375 
Q 48.25 35.75 49.734375 31.671875 
Q 51.21875 27.59375 51.21875 22.515625 
M 42.28125 22.125 
Q 42.28125 25.6875 41.40625 28.5625 
Q 40.53125 31.453125 38.765625 33.46875 
Q 37.015625 35.5 34.421875 36.59375 
Q 31.84375 37.703125 28.421875 37.703125 
Q 26.03125 37.703125 23.578125 36.984375 
Q 21.140625 36.28125 19.15625 34.6875 
Q 17.1875 33.109375 15.9375 30.515625 
Q 14.703125 27.9375 14.703125 24.21875 
Q 14.703125 20.40625 15.671875 17.109375 
Q 16.65625 13.8125 18.484375 11.375 
Q 20.3125 8.9375 22.890625 7.515625 
Q 25.484375 6.109375 28.71875 6.109375 
Q 31.890625 6.109375 34.40625 7.203125 
Q 36.921875 8.296875 38.671875 10.375 
Q 40.4375 12.453125 41.359375 15.421875 
Q 42.28125 18.40625 42.28125 22.125 
" id="LiberationSans-36"/>
      </defs>
      <g style="fill:#262626;" transform="translate(314.259401483 455.246875)scale(0.1 -0.1)">
       <use xlink:href="#LiberationSans-36"/>
       <use x="55.615234375" xlink:href="#LiberationSans-30"/>
      </g>
     </g>
    </g>
    <g id="xtick_8">
     <g id="line2d_15"/>
     <g id="line2d_16"/>
     <g id="text_8">
      <!-- 70 -->
      <defs>
       <path d="M 50.59375 61.671875 
Q 45.40625 53.765625 41.0625 46.453125 
Q 36.71875 39.15625 33.59375 31.75 
Q 30.46875 24.359375 28.734375 16.578125 
Q 27 8.796875 27 0 
L 17.828125 0 
Q 17.828125 8.25 19.78125 16.1875 
Q 21.734375 24.125 25.046875 31.765625 
Q 28.375 39.40625 32.765625 46.78125 
Q 37.15625 54.15625 42.09375 61.328125 
L 5.125 61.328125 
L 5.125 68.796875 
L 50.59375 68.796875 
z
" id="LiberationSans-37"/>
      </defs>
      <g style="fill:#262626;" transform="translate(352.089909958 455.246875)scale(0.1 -0.1)">
       <use xlink:href="#LiberationSans-37"/>
       <use x="55.615234375" xlink:href="#LiberationSans-30"/>
      </g>
     </g>
    </g>
    <g id="xtick_9">
     <g id="line2d_17"/>
     <g id="line2d_18"/>
     <g id="text_9">
      <!-- 80 -->
      <defs>
       <path d="M 51.265625 19.1875 
Q 51.265625 14.796875 49.875 11.109375 
Q 48.484375 7.421875 45.625 4.734375 
Q 42.78125 2.046875 38.328125 0.53125 
Q 33.890625 -0.984375 27.828125 -0.984375 
Q 21.78125 -0.984375 17.359375 0.53125 
Q 12.9375 2.046875 10.03125 4.703125 
Q 7.125 7.375 5.734375 11.0625 
Q 4.34375 14.75 4.34375 19.09375 
Q 4.34375 22.859375 5.484375 25.78125 
Q 6.640625 28.71875 8.5625 30.828125 
Q 10.5 32.953125 12.96875 34.25 
Q 15.4375 35.546875 18.0625 35.984375 
L 18.0625 36.1875 
Q 15.1875 36.859375 12.90625 38.375 
Q 10.640625 39.890625 9.09375 42.015625 
Q 7.5625 44.140625 6.75 46.71875 
Q 5.953125 49.3125 5.953125 52.203125 
Q 5.953125 55.8125 7.34375 59 
Q 8.734375 62.203125 11.46875 64.625 
Q 14.203125 67.046875 18.25 68.4375 
Q 22.3125 69.828125 27.640625 69.828125 
Q 33.25 69.828125 37.375 68.40625 
Q 41.5 67 44.203125 64.578125 
Q 46.921875 62.15625 48.234375 58.9375 
Q 49.5625 55.71875 49.5625 52.09375 
Q 49.5625 49.265625 48.75 46.671875 
Q 47.953125 44.09375 46.40625 41.96875 
Q 44.875 39.84375 42.59375 38.34375 
Q 40.328125 36.859375 37.359375 36.28125 
L 37.359375 36.078125 
Q 40.328125 35.59375 42.859375 34.296875 
Q 45.40625 33.015625 47.265625 30.890625 
Q 49.125 28.765625 50.1875 25.828125 
Q 51.265625 22.90625 51.265625 19.1875 
M 40.4375 51.609375 
Q 40.4375 54.203125 39.765625 56.34375 
Q 39.109375 58.5 37.59375 60.03125 
Q 36.078125 61.578125 33.640625 62.421875 
Q 31.203125 63.28125 27.640625 63.28125 
Q 24.171875 63.28125 21.78125 62.421875 
Q 19.390625 61.578125 17.84375 60.03125 
Q 16.3125 58.5 15.625 56.34375 
Q 14.9375 54.203125 14.9375 51.609375 
Q 14.9375 49.5625 15.46875 47.40625 
Q 16.015625 45.265625 17.421875 43.5 
Q 18.84375 41.75 21.328125 40.625 
Q 23.828125 39.5 27.734375 39.5 
Q 31.890625 39.5 34.40625 40.625 
Q 36.921875 41.75 38.25 43.5 
Q 39.59375 45.265625 40.015625 47.40625 
Q 40.4375 49.5625 40.4375 51.609375 
M 42.140625 20.015625 
Q 42.140625 22.515625 41.453125 24.828125 
Q 40.765625 27.15625 39.109375 28.9375 
Q 37.453125 30.71875 34.640625 31.8125 
Q 31.84375 32.90625 27.640625 32.90625 
Q 23.78125 32.90625 21.0625 31.8125 
Q 18.359375 30.71875 16.671875 28.90625 
Q 14.984375 27.09375 14.203125 24.71875 
Q 13.421875 22.359375 13.421875 19.828125 
Q 13.421875 16.65625 14.203125 14.03125 
Q 14.984375 11.421875 16.6875 9.546875 
Q 18.40625 7.671875 21.1875 6.640625 
Q 23.96875 5.609375 27.9375 5.609375 
Q 31.9375 5.609375 34.671875 6.640625 
Q 37.40625 7.671875 39.0625 9.546875 
Q 40.71875 11.421875 41.421875 14.078125 
Q 42.140625 16.75 42.140625 20.015625 
" id="LiberationSans-38"/>
      </defs>
      <g style="fill:#262626;" transform="translate(389.920418432 455.246875)scale(0.1 -0.1)">
       <use xlink:href="#LiberationSans-38"/>
       <use x="55.615234375" xlink:href="#LiberationSans-30"/>
      </g>
     </g>
    </g>
    <g id="xtick_10">
     <g id="line2d_19"/>
     <g id="line2d_20"/>
     <g id="text_10">
      <!-- 90 -->
      <defs>
       <path d="M 50.875 35.796875 
Q 50.875 26.609375 49.140625 19.703125 
Q 47.40625 12.796875 44.1875 8.203125 
Q 40.96875 3.609375 36.34375 1.3125 
Q 31.734375 -0.984375 25.984375 -0.984375 
Q 22.015625 -0.984375 18.84375 -0.171875 
Q 15.671875 0.640625 13.171875 2.34375 
Q 10.6875 4.046875 8.921875 6.78125 
Q 7.171875 9.515625 6.109375 13.375 
L 14.5 14.703125 
Q 15.875 10.25 18.78125 8.171875 
Q 21.6875 6.109375 26.125 6.109375 
Q 29.6875 6.109375 32.640625 7.78125 
Q 35.59375 9.46875 37.671875 12.84375 
Q 39.75 16.21875 40.921875 21.296875 
Q 42.09375 26.375 42.1875 33.203125 
Q 41.15625 30.90625 39.375 29.09375 
Q 37.59375 27.296875 35.328125 26.046875 
Q 33.0625 24.8125 30.421875 24.140625 
Q 27.78125 23.484375 25.09375 23.484375 
Q 20.40625 23.484375 16.625 25.171875 
Q 12.84375 26.859375 10.203125 29.875 
Q 7.5625 32.90625 6.125 37.171875 
Q 4.6875 41.453125 4.6875 46.6875 
Q 4.6875 52 6.21875 56.296875 
Q 7.765625 60.59375 10.6875 63.59375 
Q 13.625 66.609375 17.890625 68.21875 
Q 22.171875 69.828125 27.59375 69.828125 
Q 39.0625 69.828125 44.96875 61.328125 
Q 50.875 52.828125 50.875 35.796875 
M 41.3125 44.28125 
Q 41.3125 48.09375 40.40625 51.453125 
Q 39.5 54.828125 37.71875 57.3125 
Q 35.9375 59.8125 33.328125 61.25 
Q 30.71875 62.703125 27.296875 62.703125 
Q 24.125 62.703125 21.578125 61.578125 
Q 19.046875 60.453125 17.28125 58.375 
Q 15.53125 56.296875 14.578125 53.3125 
Q 13.625 50.34375 13.625 46.6875 
Q 13.625 43.21875 14.46875 40.234375 
Q 15.328125 37.25 17.03125 35.078125 
Q 18.75 32.90625 21.28125 31.65625 
Q 23.828125 30.421875 27.203125 30.421875 
Q 29.640625 30.421875 32.15625 31.25 
Q 34.671875 32.078125 36.6875 33.78125 
Q 38.71875 35.5 40.015625 38.109375 
Q 41.3125 40.71875 41.3125 44.28125 
" id="LiberationSans-39"/>
      </defs>
      <g style="fill:#262626;" transform="translate(427.750926907 455.246875)scale(0.1 -0.1)">
       <use xlink:href="#LiberationSans-39"/>
       <use x="55.615234375" xlink:href="#LiberationSans-30"/>
      </g>
     </g>
    </g>
    <g id="xtick_11">
     <g id="line2d_21"/>
     <g id="line2d_22"/>
     <g id="text_11">
      <!-- 100 -->
      <g style="fill:#262626;" transform="translate(462.800966631 455.246875)scale(0.1 -0.1)">
       <use xlink:href="#LiberationSans-31"/>
       <use x="55.615234375" xlink:href="#LiberationSans-30"/>
       <use x="111.23046875" xlink:href="#LiberationSans-30"/>
      </g>
     </g>
    </g>
    <g id="xtick_12">
     <g id="line2d_23"/>
     <g id="line2d_24"/>
     <g id="text_12">
      <!-- 110 -->
      <g style="fill:#262626;" transform="translate(500.631475106 455.246875)scale(0.1 -0.1)">
       <use xlink:href="#LiberationSans-31"/>
       <use x="55.615234375" xlink:href="#LiberationSans-31"/>
       <use x="111.23046875" xlink:href="#LiberationSans-30"/>
      </g>
     </g>
    </g>
    <g id="xtick_13">
     <g id="line2d_25"/>
     <g id="line2d_26"/>
     <g id="text_13">
      <!-- 120 -->
      <g style="fill:#262626;" transform="translate(538.461983581 455.246875)scale(0.1 -0.1)">
       <use xlink:href="#LiberationSans-31"/>
       <use x="55.615234375" xlink:href="#LiberationSans-32"/>
       <use x="111.23046875" xlink:href="#LiberationSans-30"/>
      </g>
     </g>
    </g>
    <g id="xtick_14">
     <g id="line2d_27"/>
     <g id="line2d_28"/>
     <g id="text_14">
      <!-- 130 -->
      <g style="fill:#262626;" transform="translate(576.292492055 455.246875)scale(0.1 -0.1)">
       <use xlink:href="#LiberationSans-31"/>
       <use x="55.615234375" xlink:href="#LiberationSans-33"/>
       <use x="111.23046875" xlink:href="#LiberationSans-30"/>
      </g>
     </g>
    </g>
    <g id="xtick_15">
     <g id="line2d_29"/>
     <g id="line2d_30"/>
     <g id="text_15">
      <!-- 140 -->
      <g style="fill:#262626;" transform="translate(614.12300053 455.246875)scale(0.1 -0.1)">
       <use xlink:href="#LiberationSans-31"/>
       <use x="55.615234375" xlink:href="#LiberationSans-34"/>
       <use x="111.23046875" xlink:href="#LiberationSans-30"/>
      </g>
     </g>
    </g>
   </g>
   <g id="matplotlib.axis_2">
    <g id="ytick_1">
     <g id="line2d_31"/>
     <g id="line2d_32"/>
     <g id="text_16">
      <!-- 0.0 -->
      <defs>
       <path d="M 9.125 0 
L 9.125 10.6875 
L 18.65625 10.6875 
L 18.65625 0 
z
" id="LiberationSans-2e"/>
      </defs>
      <g style="fill:#262626;" transform="translate(69.1 443.5859375)scale(0.1 -0.1)">
       <use xlink:href="#LiberationSans-30"/>
       <use x="55.615234375" xlink:href="#LiberationSans-2e"/>
       <use x="83.3984375" xlink:href="#LiberationSans-30"/>
      </g>
     </g>
    </g>
    <g id="ytick_2">
     <g id="line2d_33"/>
     <g id="line2d_34"/>
     <g id="text_17">
      <!-- 0.2 -->
      <g style="fill:#262626;" transform="translate(69.1 365.4659375)scale(0.1 -0.1)">
       <use xlink:href="#LiberationSans-30"/>
       <use x="55.615234375" xlink:href="#LiberationSans-2e"/>
       <use x="83.3984375" xlink:href="#LiberationSans-32"/>
      </g>
     </g>
    </g>
    <g id="ytick_3">
     <g id="line2d_35"/>
     <g id="line2d_36"/>
     <g id="text_18">
      <!-- 0.4 -->
      <g style="fill:#262626;" transform="translate(69.1 287.3459375)scale(0.1 -0.1)">
       <use xlink:href="#LiberationSans-30"/>
       <use x="55.615234375" xlink:href="#LiberationSans-2e"/>
       <use x="83.3984375" xlink:href="#LiberationSans-34"/>
      </g>
     </g>
    </g>
    <g id="ytick_4">
     <g id="line2d_37"/>
     <g id="line2d_38"/>
     <g id="text_19">
      <!-- 0.6 -->
      <g style="fill:#262626;" transform="translate(69.1 209.2259375)scale(0.1 -0.1)">
       <use xlink:href="#LiberationSans-30"/>
       <use x="55.615234375" xlink:href="#LiberationSans-2e"/>
       <use x="83.3984375" xlink:href="#LiberationSans-36"/>
      </g>
     </g>
    </g>
    <g id="ytick_5">
     <g id="line2d_39"/>
     <g id="line2d_40"/>
     <g id="text_20">
      <!-- 0.8 -->
      <g style="fill:#262626;" transform="translate(69.1 131.1059375)scale(0.1 -0.1)">
       <use xlink:href="#LiberationSans-30"/>
       <use x="55.615234375" xlink:href="#LiberationSans-2e"/>
       <use x="83.3984375" xlink:href="#LiberationSans-38"/>
      </g>
     </g>
    </g>
    <g id="ytick_6">
     <g id="line2d_41"/>
     <g id="line2d_42"/>
     <g id="text_21">
      <!-- 1.0 -->
      <g style="fill:#262626;" transform="translate(69.1 52.9859375)scale(0.1 -0.1)">
       <use xlink:href="#LiberationSans-31"/>
       <use x="55.615234375" xlink:href="#LiberationSans-2e"/>
       <use x="83.3984375" xlink:href="#LiberationSans-30"/>
      </g>
     </g>
    </g>
   </g>
   <g id="patch_3">
    <path clip-path="url(#pd1891bf1aa)" d="M 90.945763 441 
L 94.728814 441 
L 94.728814 50.4 
L 90.945763 50.4 
z
" style="fill:#008000;stroke:#000000;stroke-linejoin:miter;stroke-width:0.3;"/>
   </g>
   <g id="patch_4">
    <path clip-path="url(#pd1891bf1aa)" d="M 94.728814 441 
L 98.511864 441 
L 98.511864 120.737308 
L 94.728814 120.737308 
z
" style="fill:#008000;stroke:#000000;stroke-linejoin:miter;stroke-width:0.3;"/>
   </g>
   <g id="patch_5">
    <path clip-path="url(#pd1891bf1aa)" d="M 98.511864 441 
L 102.294915 441 
L 102.294915 138.22576 
L 98.511864 138.22576 
z
" style="fill:#00bfff;stroke:#000000;stroke-linejoin:miter;stroke-width:0.3;"/>
   </g>
   <g id="patch_6">
    <path clip-path="url(#pd1891bf1aa)" d="M 102.294915 441 
L 106.077966 441 
L 106.077966 154.845431 
L 102.294915 154.845431 
z
" style="fill:#008000;stroke:#000000;stroke-linejoin:miter;stroke-width:0.3;"/>
   </g>
   <g id="patch_7">
    <path clip-path="url(#pd1891bf1aa)" d="M 106.077966 441 
L 109.861017 441 
L 109.861017 156.256944 
L 106.077966 156.256944 
z
" style="fill:#00bfff;stroke:#000000;stroke-linejoin:miter;stroke-width:0.3;"/>
   </g>
   <g id="patch_8">
    <path clip-path="url(#pd1891bf1aa)" d="M 109.861017 441 
L 113.644068 441 
L 113.644068 170.311444 
L 109.861017 170.311444 
z
" style="fill:#ba55d3;stroke:#000000;stroke-linejoin:miter;stroke-width:0.3;"/>
   </g>
   <g id="patch_9">
    <path clip-path="url(#pd1891bf1aa)" d="M 113.644068 441 
L 117.427119 441 
L 117.427119 172.24329 
L 113.644068 172.24329 
z
" style="fill:#ba55d3;stroke:#000000;stroke-linejoin:miter;stroke-width:0.3;"/>
   </g>
   <g id="patch_10">
    <path clip-path="url(#pd1891bf1aa)" d="M 117.427119 441 
L 121.210169 441 
L 121.210169 178.489284 
L 117.427119 178.489284 
z
" style="fill:#ba55d3;stroke:#000000;stroke-linejoin:miter;stroke-width:0.3;"/>
   </g>
   <g id="patch_11">
    <path clip-path="url(#pd1891bf1aa)" d="M 121.210169 441 
L 124.99322 441 
L 124.99322 182.77475 
L 121.210169 182.77475 
z
" style="fill:#00bfff;stroke:#000000;stroke-linejoin:miter;stroke-width:0.3;"/>
   </g>
   <g id="patch_12">
    <path clip-path="url(#pd1891bf1aa)" d="M 124.99322 441 
L 128.776271 441 
L 128.776271 200.790131 
L 124.99322 200.790131 
z
" style="fill:#ba55d3;stroke:#000000;stroke-linejoin:miter;stroke-width:0.3;"/>
   </g>
   <g id="patch_13">
    <path clip-path="url(#pd1891bf1aa)" d="M 128.776271 441 
L 132.559322 441 
L 132.559322 221.793026 
L 128.776271 221.793026 
z
" style="fill:#00bfff;stroke:#000000;stroke-linejoin:miter;stroke-width:0.3;"/>
   </g>
   <g id="patch_14">
    <path clip-path="url(#pd1891bf1aa)" d="M 132.559322 441 
L 136.342373 441 
L 136.342373 223.827923 
L 132.559322 223.827923 
z
" style="fill:#ba55d3;stroke:#000000;stroke-linejoin:miter;stroke-width:0.3;"/>
   </g>
   <g id="patch_15">
    <path clip-path="url(#pd1891bf1aa)" d="M 136.342373 441 
L 140.125424 441 
L 140.125424 224.434739 
L 136.342373 224.434739 
z
" style="fill:#ba55d3;stroke:#000000;stroke-linejoin:miter;stroke-width:0.3;"/>
   </g>
   <g id="patch_16">
    <path clip-path="url(#pd1891bf1aa)" d="M 140.125424 441 
L 143.908475 441 
L 143.908475 243.438744 
L 140.125424 243.438744 
z
" style="fill:#ff8c00;stroke:#000000;stroke-linejoin:miter;stroke-width:0.3;"/>
   </g>
   <g id="patch_17">
    <path clip-path="url(#pd1891bf1aa)" d="M 143.908475 441 
L 147.691525 441 
L 147.691525 245.479219 
L 143.908475 245.479219 
z
" style="fill:#008000;stroke:#000000;stroke-linejoin:miter;stroke-width:0.3;"/>
   </g>
   <g id="patch_18">
    <path clip-path="url(#pd1891bf1aa)" d="M 147.691525 441 
L 151.474576 441 
L 151.474576 263.294371 
L 147.691525 263.294371 
z
" style="fill:#ff8c00;stroke:#000000;stroke-linejoin:miter;stroke-width:0.3;"/>
   </g>
   <g id="patch_19">
    <path clip-path="url(#pd1891bf1aa)" d="M 151.474576 441 
L 155.257627 441 
L 155.257627 263.470779 
L 151.474576 263.470779 
z
" style="fill:#00bfff;stroke:#000000;stroke-linejoin:miter;stroke-width:0.3;"/>
   </g>
   <g id="patch_20">
    <path clip-path="url(#pd1891bf1aa)" d="M 155.257627 441 
L 159.040678 441 
L 159.040678 267.343488 
L 155.257627 267.343488 
z
" style="fill:#00bfff;stroke:#000000;stroke-linejoin:miter;stroke-width:0.3;"/>
   </g>
   <g id="patch_21">
    <path clip-path="url(#pd1891bf1aa)" d="M 159.040678 441 
L 162.823729 441 
L 162.823729 271.60315 
L 159.040678 271.60315 
z
" style="fill:#a52a2a;stroke:#000000;stroke-linejoin:miter;stroke-width:0.3;"/>
   </g>
   <g id="patch_22">
    <path clip-path="url(#pd1891bf1aa)" d="M 162.823729 441 
L 166.60678 441 
L 166.60678 272.157906 
L 162.823729 272.157906 
z
" style="fill:#00bfff;stroke:#000000;stroke-linejoin:miter;stroke-width:0.3;"/>
   </g>
   <g id="patch_23">
    <path clip-path="url(#pd1891bf1aa)" d="M 166.60678 441 
L 170.389831 441 
L 170.389831 273.259742 
L 166.60678 273.259742 
z
" style="fill:#a52a2a;stroke:#000000;stroke-linejoin:miter;stroke-width:0.3;"/>
   </g>
   <g id="patch_24">
    <path clip-path="url(#pd1891bf1aa)" d="M 170.389831 441 
L 174.172881 441 
L 174.172881 275.805438 
L 170.389831 275.805438 
z
" style="fill:#00bfff;stroke:#000000;stroke-linejoin:miter;stroke-width:0.3;"/>
   </g>
   <g id="patch_25">
    <path clip-path="url(#pd1891bf1aa)" d="M 174.172881 441 
L 177.955932 441 
L 177.955932 277.257499 
L 174.172881 277.257499 
z
" style="fill:#008000;stroke:#000000;stroke-linejoin:miter;stroke-width:0.3;"/>
   </g>
   <g id="patch_26">
    <path clip-path="url(#pd1891bf1aa)" d="M 177.955932 441 
L 181.738983 441 
L 181.738983 279.345802 
L 177.955932 279.345802 
z
" style="fill:#ba55d3;stroke:#000000;stroke-linejoin:miter;stroke-width:0.3;"/>
   </g>
   <g id="patch_27">
    <path clip-path="url(#pd1891bf1aa)" d="M 181.738983 441 
L 185.522034 441 
L 185.522034 285.589731 
L 181.738983 285.589731 
z
" style="fill:#008000;stroke:#000000;stroke-linejoin:miter;stroke-width:0.3;"/>
   </g>
   <g id="patch_28">
    <path clip-path="url(#pd1891bf1aa)" d="M 185.522034 441 
L 189.305085 441 
L 189.305085 289.212706 
L 185.522034 289.212706 
z
" style="fill:#ba55d3;stroke:#000000;stroke-linejoin:miter;stroke-width:0.3;"/>
   </g>
   <g id="patch_29">
    <path clip-path="url(#pd1891bf1aa)" d="M 189.305085 441 
L 193.088136 441 
L 193.088136 290.587924 
L 189.305085 290.587924 
z
" style="fill:#00bfff;stroke:#000000;stroke-linejoin:miter;stroke-width:0.3;"/>
   </g>
   <g id="patch_30">
    <path clip-path="url(#pd1891bf1aa)" d="M 193.088136 441 
L 196.871186 441 
L 196.871186 295.096559 
L 193.088136 295.096559 
z
" style="fill:#ba55d3;stroke:#000000;stroke-linejoin:miter;stroke-width:0.3;"/>
   </g>
   <g id="patch_31">
    <path clip-path="url(#pd1891bf1aa)" d="M 196.871186 441 
L 200.654237 441 
L 200.654237 296.060996 
L 196.871186 296.060996 
z
" style="fill:#ff8c00;stroke:#000000;stroke-linejoin:miter;stroke-width:0.3;"/>
   </g>
   <g id="patch_32">
    <path clip-path="url(#pd1891bf1aa)" d="M 200.654237 441 
L 204.437288 441 
L 204.437288 298.469274 
L 200.654237 298.469274 
z
" style="fill:#00bfff;stroke:#000000;stroke-linejoin:miter;stroke-width:0.3;"/>
   </g>
   <g id="patch_33">
    <path clip-path="url(#pd1891bf1aa)" d="M 204.437288 441 
L 208.220339 441 
L 208.220339 300.349098 
L 204.437288 300.349098 
z
" style="fill:#a52a2a;stroke:#000000;stroke-linejoin:miter;stroke-width:0.3;"/>
   </g>
   <g id="patch_34">
    <path clip-path="url(#pd1891bf1aa)" d="M 208.220339 441 
L 212.00339 441 
L 212.00339 301.068677 
L 208.220339 301.068677 
z
" style="fill:#008000;stroke:#000000;stroke-linejoin:miter;stroke-width:0.3;"/>
   </g>
   <g id="patch_35">
    <path clip-path="url(#pd1891bf1aa)" d="M 212.00339 441 
L 215.786441 441 
L 215.786441 301.163163 
L 212.00339 301.163163 
z
" style="fill:#ba55d3;stroke:#000000;stroke-linejoin:miter;stroke-width:0.3;"/>
   </g>
   <g id="patch_36">
    <path clip-path="url(#pd1891bf1aa)" d="M 215.786441 441 
L 219.569492 441 
L 219.569492 302.142162 
L 215.786441 302.142162 
z
" style="fill:#00bfff;stroke:#000000;stroke-linejoin:miter;stroke-width:0.3;"/>
   </g>
   <g id="patch_37">
    <path clip-path="url(#pd1891bf1aa)" d="M 219.569492 441 
L 223.352542 441 
L 223.352542 302.717853 
L 219.569492 302.717853 
z
" style="fill:#ba55d3;stroke:#000000;stroke-linejoin:miter;stroke-width:0.3;"/>
   </g>
   <g id="patch_38">
    <path clip-path="url(#pd1891bf1aa)" d="M 223.352542 441 
L 227.135593 441 
L 227.135593 303.881088 
L 223.352542 303.881088 
z
" style="fill:#00bfff;stroke:#000000;stroke-linejoin:miter;stroke-width:0.3;"/>
   </g>
   <g id="patch_39">
    <path clip-path="url(#pd1891bf1aa)" d="M 227.135593 441 
L 230.918644 441 
L 230.918644 306.822518 
L 227.135593 306.822518 
z
" style="fill:#00bfff;stroke:#000000;stroke-linejoin:miter;stroke-width:0.3;"/>
   </g>
   <g id="patch_40">
    <path clip-path="url(#pd1891bf1aa)" d="M 230.918644 441 
L 234.701695 441 
L 234.701695 308.010224 
L 230.918644 308.010224 
z
" style="fill:#00bfff;stroke:#000000;stroke-linejoin:miter;stroke-width:0.3;"/>
   </g>
   <g id="patch_41">
    <path clip-path="url(#pd1891bf1aa)" d="M 234.701695 441 
L 238.484746 441 
L 238.484746 308.873205 
L 234.701695 308.873205 
z
" style="fill:#00bfff;stroke:#000000;stroke-linejoin:miter;stroke-width:0.3;"/>
   </g>
   <g id="patch_42">
    <path clip-path="url(#pd1891bf1aa)" d="M 238.484746 441 
L 242.267797 441 
L 242.267797 311.645507 
L 238.484746 311.645507 
z
" style="fill:#00bfff;stroke:#000000;stroke-linejoin:miter;stroke-width:0.3;"/>
   </g>
   <g id="patch_43">
    <path clip-path="url(#pd1891bf1aa)" d="M 242.267797 441 
L 246.050847 441 
L 246.050847 311.896565 
L 242.267797 311.896565 
z
" style="fill:#ba55d3;stroke:#000000;stroke-linejoin:miter;stroke-width:0.3;"/>
   </g>
   <g id="patch_44">
    <path clip-path="url(#pd1891bf1aa)" d="M 246.050847 441 
L 249.833898 441 
L 249.833898 312.67129 
L 246.050847 312.67129 
z
" style="fill:#00bfff;stroke:#000000;stroke-linejoin:miter;stroke-width:0.3;"/>
   </g>
   <g id="patch_45">
    <path clip-path="url(#pd1891bf1aa)" d="M 249.833898 441 
L 253.616949 441 
L 253.616949 312.782922 
L 249.833898 312.782922 
z
" style="fill:#ba55d3;stroke:#000000;stroke-linejoin:miter;stroke-width:0.3;"/>
   </g>
   <g id="patch_46">
    <path clip-path="url(#pd1891bf1aa)" d="M 253.616949 441 
L 257.4 441 
L 257.4 314.486582 
L 253.616949 314.486582 
z
" style="fill:#008000;stroke:#000000;stroke-linejoin:miter;stroke-width:0.3;"/>
   </g>
   <g id="patch_47">
    <path clip-path="url(#pd1891bf1aa)" d="M 257.4 441 
L 261.183051 441 
L 261.183051 314.680295 
L 257.4 314.680295 
z
" style="fill:#00bfff;stroke:#000000;stroke-linejoin:miter;stroke-width:0.3;"/>
   </g>
   <g id="patch_48">
    <path clip-path="url(#pd1891bf1aa)" d="M 261.183051 441 
L 264.966102 441 
L 264.966102 314.741314 
L 261.183051 314.741314 
z
" style="fill:#a52a2a;stroke:#000000;stroke-linejoin:miter;stroke-width:0.3;"/>
   </g>
   <g id="patch_49">
    <path clip-path="url(#pd1891bf1aa)" d="M 264.966102 441 
L 268.749153 441 
L 268.749153 316.263642 
L 264.966102 316.263642 
z
" style="fill:#ba55d3;stroke:#000000;stroke-linejoin:miter;stroke-width:0.3;"/>
   </g>
   <g id="patch_50">
    <path clip-path="url(#pd1891bf1aa)" d="M 268.749153 441 
L 272.532203 441 
L 272.532203 316.316947 
L 268.749153 316.316947 
z
" style="fill:#ba55d3;stroke:#000000;stroke-linejoin:miter;stroke-width:0.3;"/>
   </g>
   <g id="patch_51">
    <path clip-path="url(#pd1891bf1aa)" d="M 272.532203 441 
L 276.315254 441 
L 276.315254 319.804697 
L 272.532203 319.804697 
z
" style="fill:#a52a2a;stroke:#000000;stroke-linejoin:miter;stroke-width:0.3;"/>
   </g>
   <g id="patch_52">
    <path clip-path="url(#pd1891bf1aa)" d="M 276.315254 441 
L 280.098305 441 
L 280.098305 320.819239 
L 276.315254 320.819239 
z
" style="fill:#a52a2a;stroke:#000000;stroke-linejoin:miter;stroke-width:0.3;"/>
   </g>
   <g id="patch_53">
    <path clip-path="url(#pd1891bf1aa)" d="M 280.098305 441 
L 283.881356 441 
L 283.881356 322.376595 
L 280.098305 322.376595 
z
" style="fill:#a52a2a;stroke:#000000;stroke-linejoin:miter;stroke-width:0.3;"/>
   </g>
   <g id="patch_54">
    <path clip-path="url(#pd1891bf1aa)" d="M 283.881356 441 
L 287.664407 441 
L 287.664407 323.214328 
L 283.881356 323.214328 
z
" style="fill:#008000;stroke:#000000;stroke-linejoin:miter;stroke-width:0.3;"/>
   </g>
   <g id="patch_55">
    <path clip-path="url(#pd1891bf1aa)" d="M 287.664407 441 
L 291.447458 441 
L 291.447458 323.363744 
L 287.664407 323.363744 
z
" style="fill:#00bfff;stroke:#000000;stroke-linejoin:miter;stroke-width:0.3;"/>
   </g>
   <g id="patch_56">
    <path clip-path="url(#pd1891bf1aa)" d="M 291.447458 441 
L 295.230508 441 
L 295.230508 323.525238 
L 291.447458 323.525238 
z
" style="fill:#00bfff;stroke:#000000;stroke-linejoin:miter;stroke-width:0.3;"/>
   </g>
   <g id="patch_57">
    <path clip-path="url(#pd1891bf1aa)" d="M 295.230508 441 
L 299.013559 441 
L 299.013559 324.948602 
L 295.230508 324.948602 
z
" style="fill:#00bfff;stroke:#000000;stroke-linejoin:miter;stroke-width:0.3;"/>
   </g>
   <g id="patch_58">
    <path clip-path="url(#pd1891bf1aa)" d="M 299.013559 441 
L 302.79661 441 
L 302.79661 325.448742 
L 299.013559 325.448742 
z
" style="fill:#a52a2a;stroke:#000000;stroke-linejoin:miter;stroke-width:0.3;"/>
   </g>
   <g id="patch_59">
    <path clip-path="url(#pd1891bf1aa)" d="M 302.79661 441 
L 306.579661 441 
L 306.579661 325.59282 
L 302.79661 325.59282 
z
" style="fill:#ff8c00;stroke:#000000;stroke-linejoin:miter;stroke-width:0.3;"/>
   </g>
   <g id="patch_60">
    <path clip-path="url(#pd1891bf1aa)" d="M 306.579661 441 
L 310.362712 441 
L 310.362712 330.607508 
L 306.579661 330.607508 
z
" style="fill:#00bfff;stroke:#000000;stroke-linejoin:miter;stroke-width:0.3;"/>
   </g>
   <g id="patch_61">
    <path clip-path="url(#pd1891bf1aa)" d="M 310.362712 441 
L 314.145763 441 
L 314.145763 330.856484 
L 310.362712 330.856484 
z
" style="fill:#a52a2a;stroke:#000000;stroke-linejoin:miter;stroke-width:0.3;"/>
   </g>
   <g id="patch_62">
    <path clip-path="url(#pd1891bf1aa)" d="M 314.145763 441 
L 317.928814 441 
L 317.928814 331.481471 
L 314.145763 331.481471 
z
" style="fill:#00bfff;stroke:#000000;stroke-linejoin:miter;stroke-width:0.3;"/>
   </g>
   <g id="patch_63">
    <path clip-path="url(#pd1891bf1aa)" d="M 317.928814 441 
L 321.711864 441 
L 321.711864 332.099224 
L 317.928814 332.099224 
z
" style="fill:#00bfff;stroke:#000000;stroke-linejoin:miter;stroke-width:0.3;"/>
   </g>
   <g id="patch_64">
    <path clip-path="url(#pd1891bf1aa)" d="M 321.711864 441 
L 325.494915 441 
L 325.494915 332.218965 
L 321.711864 332.218965 
z
" style="fill:#ba55d3;stroke:#000000;stroke-linejoin:miter;stroke-width:0.3;"/>
   </g>
   <g id="patch_65">
    <path clip-path="url(#pd1891bf1aa)" d="M 325.494915 441 
L 329.277966 441 
L 329.277966 332.394473 
L 325.494915 332.394473 
z
" style="fill:#a52a2a;stroke:#000000;stroke-linejoin:miter;stroke-width:0.3;"/>
   </g>
   <g id="patch_66">
    <path clip-path="url(#pd1891bf1aa)" d="M 329.277966 441 
L 333.061017 441 
L 333.061017 332.533406 
L 329.277966 332.533406 
z
" style="fill:#a52a2a;stroke:#000000;stroke-linejoin:miter;stroke-width:0.3;"/>
   </g>
   <g id="patch_67">
    <path clip-path="url(#pd1891bf1aa)" d="M 333.061017 441 
L 336.844068 441 
L 336.844068 332.715758 
L 333.061017 332.715758 
z
" style="fill:#a52a2a;stroke:#000000;stroke-linejoin:miter;stroke-width:0.3;"/>
   </g>
   <g id="patch_68">
    <path clip-path="url(#pd1891bf1aa)" d="M 336.844068 441 
L 340.627119 441 
L 340.627119 332.716342 
L 336.844068 332.716342 
z
" style="fill:#00bfff;stroke:#000000;stroke-linejoin:miter;stroke-width:0.3;"/>
   </g>
   <g id="patch_69">
    <path clip-path="url(#pd1891bf1aa)" d="M 340.627119 441 
L 344.410169 441 
L 344.410169 333.516919 
L 340.627119 333.516919 
z
" style="fill:#ff8c00;stroke:#000000;stroke-linejoin:miter;stroke-width:0.3;"/>
   </g>
   <g id="patch_70">
    <path clip-path="url(#pd1891bf1aa)" d="M 344.410169 441 
L 348.19322 441 
L 348.19322 334.168542 
L 344.410169 334.168542 
z
" style="fill:#a52a2a;stroke:#000000;stroke-linejoin:miter;stroke-width:0.3;"/>
   </g>
   <g id="patch_71">
    <path clip-path="url(#pd1891bf1aa)" d="M 348.19322 441 
L 351.976271 441 
L 351.976271 334.342422 
L 348.19322 334.342422 
z
" style="fill:#ff8c00;stroke:#000000;stroke-linejoin:miter;stroke-width:0.3;"/>
   </g>
   <g id="patch_72">
    <path clip-path="url(#pd1891bf1aa)" d="M 351.976271 441 
L 355.759322 441 
L 355.759322 334.667366 
L 351.976271 334.667366 
z
" style="fill:#a52a2a;stroke:#000000;stroke-linejoin:miter;stroke-width:0.3;"/>
   </g>
   <g id="patch_73">
    <path clip-path="url(#pd1891bf1aa)" d="M 355.759322 441 
L 359.542373 441 
L 359.542373 335.687684 
L 355.759322 335.687684 
z
" style="fill:#a52a2a;stroke:#000000;stroke-linejoin:miter;stroke-width:0.3;"/>
   </g>
   <g id="patch_74">
    <path clip-path="url(#pd1891bf1aa)" d="M 359.542373 441 
L 363.325424 441 
L 363.325424 337.264321 
L 359.542373 337.264321 
z
" style="fill:#a52a2a;stroke:#000000;stroke-linejoin:miter;stroke-width:0.3;"/>
   </g>
   <g id="patch_75">
    <path clip-path="url(#pd1891bf1aa)" d="M 363.325424 441 
L 367.108475 441 
L 367.108475 337.38668 
L 363.325424 337.38668 
z
" style="fill:#a52a2a;stroke:#000000;stroke-linejoin:miter;stroke-width:0.3;"/>
   </g>
   <g id="patch_76">
    <path clip-path="url(#pd1891bf1aa)" d="M 367.108475 441 
L 370.891525 441 
L 370.891525 338.151294 
L 367.108475 338.151294 
z
" style="fill:#a52a2a;stroke:#000000;stroke-linejoin:miter;stroke-width:0.3;"/>
   </g>
   <g id="patch_77">
    <path clip-path="url(#pd1891bf1aa)" d="M 370.891525 441 
L 374.674576 441 
L 374.674576 339.887701 
L 370.891525 339.887701 
z
" style="fill:#a52a2a;stroke:#000000;stroke-linejoin:miter;stroke-width:0.3;"/>
   </g>
   <g id="patch_78">
    <path clip-path="url(#pd1891bf1aa)" d="M 374.674576 441 
L 378.457627 441 
L 378.457627 340.242133 
L 374.674576 340.242133 
z
" style="fill:#ff8c00;stroke:#000000;stroke-linejoin:miter;stroke-width:0.3;"/>
   </g>
   <g id="patch_79">
    <path clip-path="url(#pd1891bf1aa)" d="M 378.457627 441 
L 382.240678 441 
L 382.240678 340.250626 
L 378.457627 340.250626 
z
" style="fill:#a52a2a;stroke:#000000;stroke-linejoin:miter;stroke-width:0.3;"/>
   </g>
   <g id="patch_80">
    <path clip-path="url(#pd1891bf1aa)" d="M 382.240678 441 
L 386.023729 441 
L 386.023729 340.334486 
L 382.240678 340.334486 
z
" style="fill:#a52a2a;stroke:#000000;stroke-linejoin:miter;stroke-width:0.3;"/>
   </g>
   <g id="patch_81">
    <path clip-path="url(#pd1891bf1aa)" d="M 386.023729 441 
L 389.80678 441 
L 389.80678 344.067177 
L 386.023729 344.067177 
z
" style="fill:#00bfff;stroke:#000000;stroke-linejoin:miter;stroke-width:0.3;"/>
   </g>
   <g id="patch_82">
    <path clip-path="url(#pd1891bf1aa)" d="M 389.80678 441 
L 393.589831 441 
L 393.589831 344.556869 
L 389.80678 344.556869 
z
" style="fill:#a52a2a;stroke:#000000;stroke-linejoin:miter;stroke-width:0.3;"/>
   </g>
   <g id="patch_83">
    <path clip-path="url(#pd1891bf1aa)" d="M 393.589831 441 
L 397.372881 441 
L 397.372881 346.310715 
L 393.589831 346.310715 
z
" style="fill:#a52a2a;stroke:#000000;stroke-linejoin:miter;stroke-width:0.3;"/>
   </g>
   <g id="patch_84">
    <path clip-path="url(#pd1891bf1aa)" d="M 397.372881 441 
L 401.155932 441 
L 401.155932 347.795434 
L 397.372881 347.795434 
z
" style="fill:#a52a2a;stroke:#000000;stroke-linejoin:miter;stroke-width:0.3;"/>
   </g>
   <g id="patch_85">
    <path clip-path="url(#pd1891bf1aa)" d="M 401.155932 441 
L 404.938983 441 
L 404.938983 347.820079 
L 401.155932 347.820079 
z
" style="fill:#a52a2a;stroke:#000000;stroke-linejoin:miter;stroke-width:0.3;"/>
   </g>
   <g id="patch_86">
    <path clip-path="url(#pd1891bf1aa)" d="M 404.938983 441 
L 408.722034 441 
L 408.722034 348.535243 
L 404.938983 348.535243 
z
" style="fill:#a52a2a;stroke:#000000;stroke-linejoin:miter;stroke-width:0.3;"/>
   </g>
   <g id="patch_87">
    <path clip-path="url(#pd1891bf1aa)" d="M 408.722034 441 
L 412.505085 441 
L 412.505085 349.322586 
L 408.722034 349.322586 
z
" style="fill:#a52a2a;stroke:#000000;stroke-linejoin:miter;stroke-width:0.3;"/>
   </g>
   <g id="patch_88">
    <path clip-path="url(#pd1891bf1aa)" d="M 412.505085 441 
L 416.288136 441 
L 416.288136 349.471185 
L 412.505085 349.471185 
z
" style="fill:#a52a2a;stroke:#000000;stroke-linejoin:miter;stroke-width:0.3;"/>
   </g>
   <g id="patch_89">
    <path clip-path="url(#pd1891bf1aa)" d="M 416.288136 441 
L 420.071186 441 
L 420.071186 350.344676 
L 416.288136 350.344676 
z
" style="fill:#a52a2a;stroke:#000000;stroke-linejoin:miter;stroke-width:0.3;"/>
   </g>
   <g id="patch_90">
    <path clip-path="url(#pd1891bf1aa)" d="M 420.071186 441 
L 423.854237 441 
L 423.854237 351.0837 
L 420.071186 351.0837 
z
" style="fill:#a52a2a;stroke:#000000;stroke-linejoin:miter;stroke-width:0.3;"/>
   </g>
   <g id="patch_91">
    <path clip-path="url(#pd1891bf1aa)" d="M 423.854237 441 
L 427.637288 441 
L 427.637288 351.356165 
L 423.854237 351.356165 
z
" style="fill:#a52a2a;stroke:#000000;stroke-linejoin:miter;stroke-width:0.3;"/>
   </g>
   <g id="patch_92">
    <path clip-path="url(#pd1891bf1aa)" d="M 427.637288 441 
L 431.420339 441 
L 431.420339 352.319055 
L 427.637288 352.319055 
z
" style="fill:#a52a2a;stroke:#000000;stroke-linejoin:miter;stroke-width:0.3;"/>
   </g>
   <g id="patch_93">
    <path clip-path="url(#pd1891bf1aa)" d="M 431.420339 441 
L 435.20339 441 
L 435.20339 352.604219 
L 431.420339 352.604219 
z
" style="fill:#a52a2a;stroke:#000000;stroke-linejoin:miter;stroke-width:0.3;"/>
   </g>
   <g id="patch_94">
    <path clip-path="url(#pd1891bf1aa)" d="M 435.20339 441 
L 438.986441 441 
L 438.986441 353.138182 
L 435.20339 353.138182 
z
" style="fill:#a52a2a;stroke:#000000;stroke-linejoin:miter;stroke-width:0.3;"/>
   </g>
   <g id="patch_95">
    <path clip-path="url(#pd1891bf1aa)" d="M 438.986441 441 
L 442.769492 441 
L 442.769492 353.218095 
L 438.986441 353.218095 
z
" style="fill:#a52a2a;stroke:#000000;stroke-linejoin:miter;stroke-width:0.3;"/>
   </g>
   <g id="patch_96">
    <path clip-path="url(#pd1891bf1aa)" d="M 442.769492 441 
L 446.552542 441 
L 446.552542 353.462422 
L 442.769492 353.462422 
z
" style="fill:#00bfff;stroke:#000000;stroke-linejoin:miter;stroke-width:0.3;"/>
   </g>
   <g id="patch_97">
    <path clip-path="url(#pd1891bf1aa)" d="M 446.552542 441 
L 450.335593 441 
L 450.335593 354.362526 
L 446.552542 354.362526 
z
" style="fill:#a52a2a;stroke:#000000;stroke-linejoin:miter;stroke-width:0.3;"/>
   </g>
   <g id="patch_98">
    <path clip-path="url(#pd1891bf1aa)" d="M 450.335593 441 
L 454.118644 441 
L 454.118644 355.224799 
L 450.335593 355.224799 
z
" style="fill:#a52a2a;stroke:#000000;stroke-linejoin:miter;stroke-width:0.3;"/>
   </g>
   <g id="patch_99">
    <path clip-path="url(#pd1891bf1aa)" d="M 454.118644 441 
L 457.901695 441 
L 457.901695 355.382965 
L 454.118644 355.382965 
z
" style="fill:#ff8c00;stroke:#000000;stroke-linejoin:miter;stroke-width:0.3;"/>
   </g>
   <g id="patch_100">
    <path clip-path="url(#pd1891bf1aa)" d="M 457.901695 441 
L 461.684746 441 
L 461.684746 355.573332 
L 457.901695 355.573332 
z
" style="fill:#a52a2a;stroke:#000000;stroke-linejoin:miter;stroke-width:0.3;"/>
   </g>
   <g id="patch_101">
    <path clip-path="url(#pd1891bf1aa)" d="M 461.684746 441 
L 465.467797 441 
L 465.467797 355.632272 
L 461.684746 355.632272 
z
" style="fill:#00bfff;stroke:#000000;stroke-linejoin:miter;stroke-width:0.3;"/>
   </g>
   <g id="patch_102">
    <path clip-path="url(#pd1891bf1aa)" d="M 465.467797 441 
L 469.250847 441 
L 469.250847 355.658497 
L 465.467797 355.658497 
z
" style="fill:#00bfff;stroke:#000000;stroke-linejoin:miter;stroke-width:0.3;"/>
   </g>
   <g id="patch_103">
    <path clip-path="url(#pd1891bf1aa)" d="M 469.250847 441 
L 473.033898 441 
L 473.033898 355.735617 
L 469.250847 355.735617 
z
" style="fill:#a52a2a;stroke:#000000;stroke-linejoin:miter;stroke-width:0.3;"/>
   </g>
   <g id="patch_104">
    <path clip-path="url(#pd1891bf1aa)" d="M 473.033898 441 
L 476.816949 441 
L 476.816949 356.341098 
L 473.033898 356.341098 
z
" style="fill:#a52a2a;stroke:#000000;stroke-linejoin:miter;stroke-width:0.3;"/>
   </g>
   <g id="patch_105">
    <path clip-path="url(#pd1891bf1aa)" d="M 476.816949 441 
L 480.6 441 
L 480.6 358.62383 
L 476.816949 358.62383 
z
" style="fill:#a52a2a;stroke:#000000;stroke-linejoin:miter;stroke-width:0.3;"/>
   </g>
   <g id="patch_106">
    <path clip-path="url(#pd1891bf1aa)" d="M 480.6 441 
L 484.383051 441 
L 484.383051 359.268513 
L 480.6 359.268513 
z
" style="fill:#a52a2a;stroke:#000000;stroke-linejoin:miter;stroke-width:0.3;"/>
   </g>
   <g id="patch_107">
    <path clip-path="url(#pd1891bf1aa)" d="M 484.383051 441 
L 488.166102 441 
L 488.166102 360.562083 
L 484.383051 360.562083 
z
" style="fill:#a52a2a;stroke:#000000;stroke-linejoin:miter;stroke-width:0.3;"/>
   </g>
   <g id="patch_108">
    <path clip-path="url(#pd1891bf1aa)" d="M 488.166102 441 
L 491.949153 441 
L 491.949153 360.634383 
L 488.166102 360.634383 
z
" style="fill:#a52a2a;stroke:#000000;stroke-linejoin:miter;stroke-width:0.3;"/>
   </g>
   <g id="patch_109">
    <path clip-path="url(#pd1891bf1aa)" d="M 491.949153 441 
L 495.732203 441 
L 495.732203 360.762701 
L 491.949153 360.762701 
z
" style="fill:#ff8c00;stroke:#000000;stroke-linejoin:miter;stroke-width:0.3;"/>
   </g>
   <g id="patch_110">
    <path clip-path="url(#pd1891bf1aa)" d="M 495.732203 441 
L 499.515254 441 
L 499.515254 361.23775 
L 495.732203 361.23775 
z
" style="fill:#a52a2a;stroke:#000000;stroke-linejoin:miter;stroke-width:0.3;"/>
   </g>
   <g id="patch_111">
    <path clip-path="url(#pd1891bf1aa)" d="M 499.515254 441 
L 503.298305 441 
L 503.298305 362.266786 
L 499.515254 362.266786 
z
" style="fill:#a52a2a;stroke:#000000;stroke-linejoin:miter;stroke-width:0.3;"/>
   </g>
   <g id="patch_112">
    <path clip-path="url(#pd1891bf1aa)" d="M 503.298305 441 
L 507.081356 441 
L 507.081356 362.3281 
L 503.298305 362.3281 
z
" style="fill:#a52a2a;stroke:#000000;stroke-linejoin:miter;stroke-width:0.3;"/>
   </g>
   <g id="patch_113">
    <path clip-path="url(#pd1891bf1aa)" d="M 507.081356 441 
L 510.864407 441 
L 510.864407 362.567493 
L 507.081356 362.567493 
z
" style="fill:#a52a2a;stroke:#000000;stroke-linejoin:miter;stroke-width:0.3;"/>
   </g>
   <g id="patch_114">
    <path clip-path="url(#pd1891bf1aa)" d="M 510.864407 441 
L 514.647458 441 
L 514.647458 365.428467 
L 510.864407 365.428467 
z
" style="fill:#a52a2a;stroke:#000000;stroke-linejoin:miter;stroke-width:0.3;"/>
   </g>
   <g id="patch_115">
    <path clip-path="url(#pd1891bf1aa)" d="M 514.647458 441 
L 518.430508 441 
L 518.430508 366.145896 
L 514.647458 366.145896 
z
" style="fill:#a52a2a;stroke:#000000;stroke-linejoin:miter;stroke-width:0.3;"/>
   </g>
   <g id="patch_116">
    <path clip-path="url(#pd1891bf1aa)" d="M 518.430508 441 
L 522.213559 441 
L 522.213559 367.988883 
L 518.430508 367.988883 
z
" style="fill:#a52a2a;stroke:#000000;stroke-linejoin:miter;stroke-width:0.3;"/>
   </g>
   <g id="patch_117">
    <path clip-path="url(#pd1891bf1aa)" d="M 522.213559 441 
L 525.99661 441 
L 525.99661 368.329128 
L 522.213559 368.329128 
z
" style="fill:#a52a2a;stroke:#000000;stroke-linejoin:miter;stroke-width:0.3;"/>
   </g>
   <g id="patch_118">
    <path clip-path="url(#pd1891bf1aa)" d="M 525.99661 441 
L 529.779661 441 
L 529.779661 368.392365 
L 525.99661 368.392365 
z
" style="fill:#a52a2a;stroke:#000000;stroke-linejoin:miter;stroke-width:0.3;"/>
   </g>
   <g id="patch_119">
    <path clip-path="url(#pd1891bf1aa)" d="M 529.779661 441 
L 533.562712 441 
L 533.562712 368.664735 
L 529.779661 368.664735 
z
" style="fill:#a52a2a;stroke:#000000;stroke-linejoin:miter;stroke-width:0.3;"/>
   </g>
   <g id="patch_120">
    <path clip-path="url(#pd1891bf1aa)" d="M 533.562712 441 
L 537.345763 441 
L 537.345763 369.447435 
L 533.562712 369.447435 
z
" style="fill:#a52a2a;stroke:#000000;stroke-linejoin:miter;stroke-width:0.3;"/>
   </g>
   <g id="patch_121">
    <path clip-path="url(#pd1891bf1aa)" d="M 537.345763 441 
L 541.128814 441 
L 541.128814 369.645554 
L 537.345763 369.645554 
z
" style="fill:#a52a2a;stroke:#000000;stroke-linejoin:miter;stroke-width:0.3;"/>
   </g>
   <g id="patch_122">
    <path clip-path="url(#pd1891bf1aa)" d="M 541.128814 441 
L 544.911864 441 
L 544.911864 372.998192 
L 541.128814 372.998192 
z
" style="fill:#a52a2a;stroke:#000000;stroke-linejoin:miter;stroke-width:0.3;"/>
   </g>
   <g id="patch_123">
    <path clip-path="url(#pd1891bf1aa)" d="M 544.911864 441 
L 548.694915 441 
L 548.694915 373.135322 
L 544.911864 373.135322 
z
" style="fill:#a52a2a;stroke:#000000;stroke-linejoin:miter;stroke-width:0.3;"/>
   </g>
   <g id="patch_124">
    <path clip-path="url(#pd1891bf1aa)" d="M 548.694915 441 
L 552.477966 441 
L 552.477966 373.371402 
L 548.694915 373.371402 
z
" style="fill:#a52a2a;stroke:#000000;stroke-linejoin:miter;stroke-width:0.3;"/>
   </g>
   <g id="patch_125">
    <path clip-path="url(#pd1891bf1aa)" d="M 552.477966 441 
L 556.261017 441 
L 556.261017 374.763435 
L 552.477966 374.763435 
z
" style="fill:#a52a2a;stroke:#000000;stroke-linejoin:miter;stroke-width:0.3;"/>
   </g>
   <g id="patch_126">
    <path clip-path="url(#pd1891bf1aa)" d="M 556.261017 441 
L 560.044068 441 
L 560.044068 375.141293 
L 556.261017 375.141293 
z
" style="fill:#a52a2a;stroke:#000000;stroke-linejoin:miter;stroke-width:0.3;"/>
   </g>
   <g id="patch_127">
    <path clip-path="url(#pd1891bf1aa)" d="M 560.044068 441 
L 563.827119 441 
L 563.827119 375.372436 
L 560.044068 375.372436 
z
" style="fill:#a52a2a;stroke:#000000;stroke-linejoin:miter;stroke-width:0.3;"/>
   </g>
   <g id="patch_128">
    <path clip-path="url(#pd1891bf1aa)" d="M 563.827119 441 
L 567.610169 441 
L 567.610169 376.702567 
L 563.827119 376.702567 
z
" style="fill:#a52a2a;stroke:#000000;stroke-linejoin:miter;stroke-width:0.3;"/>
   </g>
   <g id="patch_129">
    <path clip-path="url(#pd1891bf1aa)" d="M 567.610169 441 
L 571.39322 441 
L 571.39322 377.143397 
L 567.610169 377.143397 
z
" style="fill:#a52a2a;stroke:#000000;stroke-linejoin:miter;stroke-width:0.3;"/>
   </g>
   <g id="patch_130">
    <path clip-path="url(#pd1891bf1aa)" d="M 571.39322 441 
L 575.176271 441 
L 575.176271 378.446791 
L 571.39322 378.446791 
z
" style="fill:#a52a2a;stroke:#000000;stroke-linejoin:miter;stroke-width:0.3;"/>
   </g>
   <g id="patch_131">
    <path clip-path="url(#pd1891bf1aa)" d="M 575.176271 441 
L 578.959322 441 
L 578.959322 382.196371 
L 575.176271 382.196371 
z
" style="fill:#a52a2a;stroke:#000000;stroke-linejoin:miter;stroke-width:0.3;"/>
   </g>
   <g id="patch_132">
    <path clip-path="url(#pd1891bf1aa)" d="M 578.959322 441 
L 582.742373 441 
L 582.742373 382.401474 
L 578.959322 382.401474 
z
" style="fill:#a52a2a;stroke:#000000;stroke-linejoin:miter;stroke-width:0.3;"/>
   </g>
   <g id="patch_133">
    <path clip-path="url(#pd1891bf1aa)" d="M 582.742373 441 
L 586.525424 441 
L 586.525424 385.583695 
L 582.742373 385.583695 
z
" style="fill:#a52a2a;stroke:#000000;stroke-linejoin:miter;stroke-width:0.3;"/>
   </g>
   <g id="patch_134">
    <path clip-path="url(#pd1891bf1aa)" d="M 586.525424 441 
L 590.308475 441 
L 590.308475 387.11415 
L 586.525424 387.11415 
z
" style="fill:#a52a2a;stroke:#000000;stroke-linejoin:miter;stroke-width:0.3;"/>
   </g>
   <g id="patch_135">
    <path clip-path="url(#pd1891bf1aa)" d="M 590.308475 441 
L 594.091525 441 
L 594.091525 388.734888 
L 590.308475 388.734888 
z
" style="fill:#a52a2a;stroke:#000000;stroke-linejoin:miter;stroke-width:0.3;"/>
   </g>
   <g id="patch_136">
    <path clip-path="url(#pd1891bf1aa)" d="M 594.091525 441 
L 597.874576 441 
L 597.874576 388.773042 
L 594.091525 388.773042 
z
" style="fill:#a52a2a;stroke:#000000;stroke-linejoin:miter;stroke-width:0.3;"/>
   </g>
   <g id="patch_137">
    <path clip-path="url(#pd1891bf1aa)" d="M 597.874576 441 
L 601.657627 441 
L 601.657627 391.108039 
L 597.874576 391.108039 
z
" style="fill:#a52a2a;stroke:#000000;stroke-linejoin:miter;stroke-width:0.3;"/>
   </g>
   <g id="patch_138">
    <path clip-path="url(#pd1891bf1aa)" d="M 601.657627 441 
L 605.440678 441 
L 605.440678 391.818789 
L 601.657627 391.818789 
z
" style="fill:#a52a2a;stroke:#000000;stroke-linejoin:miter;stroke-width:0.3;"/>
   </g>
   <g id="patch_139">
    <path clip-path="url(#pd1891bf1aa)" d="M 605.440678 441 
L 609.223729 441 
L 609.223729 393.942553 
L 605.440678 393.942553 
z
" style="fill:#a52a2a;stroke:#000000;stroke-linejoin:miter;stroke-width:0.3;"/>
   </g>
   <g id="patch_140">
    <path clip-path="url(#pd1891bf1aa)" d="M 609.223729 441 
L 613.00678 441 
L 613.00678 394.843055 
L 609.223729 394.843055 
z
" style="fill:#a52a2a;stroke:#000000;stroke-linejoin:miter;stroke-width:0.3;"/>
   </g>
   <g id="patch_141">
    <path clip-path="url(#pd1891bf1aa)" d="M 613.00678 441 
L 616.789831 441 
L 616.789831 395.761134 
L 613.00678 395.761134 
z
" style="fill:#a52a2a;stroke:#000000;stroke-linejoin:miter;stroke-width:0.3;"/>
   </g>
   <g id="patch_142">
    <path clip-path="url(#pd1891bf1aa)" d="M 616.789831 441 
L 620.572881 441 
L 620.572881 399.505829 
L 616.789831 399.505829 
z
" style="fill:#a52a2a;stroke:#000000;stroke-linejoin:miter;stroke-width:0.3;"/>
   </g>
   <g id="patch_143">
    <path clip-path="url(#pd1891bf1aa)" d="M 620.572881 441 
L 624.355932 441 
L 624.355932 405.863733 
L 620.572881 405.863733 
z
" style="fill:#a52a2a;stroke:#000000;stroke-linejoin:miter;stroke-width:0.3;"/>
   </g>
   <g id="patch_144">
    <path clip-path="url(#pd1891bf1aa)" d="M 624.355932 441 
L 628.138983 441 
L 628.138983 406.27273 
L 624.355932 406.27273 
z
" style="fill:#ba55d3;stroke:#000000;stroke-linejoin:miter;stroke-width:0.3;"/>
   </g>
   <g id="patch_145">
    <path clip-path="url(#pd1891bf1aa)" d="M 628.138983 441 
L 631.922034 441 
L 631.922034 418.041307 
L 628.138983 418.041307 
z
" style="fill:#ba55d3;stroke:#000000;stroke-linejoin:miter;stroke-width:0.3;"/>
   </g>
   <g id="patch_146">
    <path clip-path="url(#pd1891bf1aa)" d="M 631.922034 441 
L 635.705085 441 
L 635.705085 439.370299 
L 631.922034 439.370299 
z
" style="fill:#ba55d3;stroke:#000000;stroke-linejoin:miter;stroke-width:0.3;"/>
   </g>
   <g id="patch_147">
    <path clip-path="url(#pd1891bf1aa)" d="M 635.705085 441 
L 639.488136 441 
L 639.488136 441 
L 635.705085 441 
z
" style="fill:#a52a2a;stroke:#000000;stroke-linejoin:miter;stroke-width:0.3;"/>
   </g>
   <g id="patch_148">
    <path clip-path="url(#pd1891bf1aa)" d="M 639.488136 441 
L 643.271186 441 
L 643.271186 441 
L 639.488136 441 
z
" style="fill:#a52a2a;stroke:#000000;stroke-linejoin:miter;stroke-width:0.3;"/>
   </g>
   <g id="patch_149">
    <path clip-path="url(#pd1891bf1aa)" d="M 643.271186 441 
L 647.054237 441 
L 647.054237 441 
L 643.271186 441 
z
" style="fill:#a52a2a;stroke:#000000;stroke-linejoin:miter;stroke-width:0.3;"/>
   </g>
   <g id="patch_150">
    <path d="M 90 50.4 
L 648 50.4 
" style="fill:none;stroke:#262626;stroke-linecap:square;stroke-linejoin:miter;stroke-width:1.25;"/>
   </g>
   <g id="patch_151">
    <path d="M 648 441 
L 648 50.4 
" style="fill:none;stroke:#262626;stroke-linecap:square;stroke-linejoin:miter;stroke-width:1.25;"/>
   </g>
   <g id="patch_152">
    <path d="M 90 441 
L 648 441 
" style="fill:none;stroke:#262626;stroke-linecap:square;stroke-linejoin:miter;stroke-width:1.25;"/>
   </g>
   <g id="patch_153">
    <path d="M 90 441 
L 90 50.4 
" style="fill:none;stroke:#262626;stroke-linecap:square;stroke-linejoin:miter;stroke-width:1.25;"/>
   </g>
  </g>
 </g>
 <defs>
  <clipPath id="pd1891bf1aa">
   <rect height="390.6" width="558.0" x="90.0" y="50.4"/>
  </clipPath>
 </defs>
</svg>
