<?xml version="1.0" encoding="UTF-8" standalone="no"?>
<!DOCTYPE svg PUBLIC "-//W3C//DTD SVG 1.1//EN"
 "http://www.w3.org/Graphics/SVG/1.1/DTD/svg11.dtd">
<!-- Generated by graphviz version 2.38.0 (20140413.2041)
 -->
<!-- Title: Tree Pages: 1 -->
<svg width="1180pt" height="426pt"
 viewBox="0.00 0.00 1179.50 425.50" xmlns="http://www.w3.org/2000/svg" xmlns:xlink="http://www.w3.org/1999/xlink">
<g id="graph0" class="graph" transform="scale(1 1) rotate(0) translate(4 421.5)">
<title>Tree</title>
<polygon fill="white" stroke="none" points="-4,4 -4,-421.5 1175.5,-421.5 1175.5,4 -4,4"/>
<!-- 0 -->
<g id="node1" class="node"><title>0</title>
<path fill="none" stroke="black" d="M674,-417.5C674,-417.5 528,-417.5 528,-417.5 522,-417.5 516,-411.5 516,-405.5 516,-405.5 516,-361.5 516,-361.5 516,-355.5 522,-349.5 528,-349.5 528,-349.5 674,-349.5 674,-349.5 680,-349.5 686,-355.5 686,-361.5 686,-361.5 686,-405.5 686,-405.5 686,-411.5 680,-417.5 674,-417.5"/>
<text text-anchor="middle" x="601" y="-402.3" font-family="Helvetica,sans-Serif" font-size="14.00">Isoelectric Point &lt;= 9.401</text>
<text text-anchor="middle" x="601" y="-387.3" font-family="Helvetica,sans-Serif" font-size="14.00">samples = 22603</text>
<text text-anchor="middle" x="601" y="-372.3" font-family="Helvetica,sans-Serif" font-size="14.00">value = [11301, 11302]</text>
<text text-anchor="middle" x="601" y="-357.3" font-family="Helvetica,sans-Serif" font-size="14.00">class = Low Expr</text>
</g>
<!-- 1 -->
<g id="node2" class="node"><title>1</title>
<path fill="#e58139" fill-opacity="0.152941" stroke="black" d="M559,-306C559,-306 413,-306 413,-306 407,-306 401,-300 401,-294 401,-294 401,-235 401,-235 401,-229 407,-223 413,-223 413,-223 559,-223 559,-223 565,-223 571,-229 571,-235 571,-235 571,-294 571,-294 571,-300 565,-306 559,-306"/>
<text text-anchor="middle" x="486" y="-290.8" font-family="Helvetica,sans-Serif" font-size="14.00">Grand Average Value</text>
<text text-anchor="middle" x="486" y="-275.8" font-family="Helvetica,sans-Serif" font-size="14.00">of Hydropathy &lt;= &#45;0.0328</text>
<text text-anchor="middle" x="486" y="-260.8" font-family="Helvetica,sans-Serif" font-size="14.00">samples = 18305</text>
<text text-anchor="middle" x="486" y="-245.8" font-family="Helvetica,sans-Serif" font-size="14.00">value = [9900, 8405]</text>
<text text-anchor="middle" x="486" y="-230.8" font-family="Helvetica,sans-Serif" font-size="14.00">class = High Expr</text>
</g>
<!-- 0&#45;&gt;1 -->
<g id="edge1" class="edge"><title>0&#45;&gt;1</title>
<path fill="none" stroke="black" d="M568.353,-349.285C557.465,-338.208 545.104,-325.632 533.331,-313.655"/>
<polygon fill="black" stroke="black" points="535.601,-310.971 526.095,-306.293 530.609,-315.878 535.601,-310.971"/>
<text text-anchor="middle" x="525.88" y="-327.592" font-family="Helvetica,sans-Serif" font-size="14.00">True</text>
</g>
<!-- 8 -->
<g id="node9" class="node"><title>8</title>
<path fill="#399de5" fill-opacity="0.517647" stroke="black" d="M799,-298.5C799,-298.5 633,-298.5 633,-298.5 627,-298.5 621,-292.5 621,-286.5 621,-286.5 621,-242.5 621,-242.5 621,-236.5 627,-230.5 633,-230.5 633,-230.5 799,-230.5 799,-230.5 805,-230.5 811,-236.5 811,-242.5 811,-242.5 811,-286.5 811,-286.5 811,-292.5 805,-298.5 799,-298.5"/>
<text text-anchor="middle" x="716" y="-283.3" font-family="Helvetica,sans-Serif" font-size="14.00">% Polar Residues &lt;= 0.3904</text>
<text text-anchor="middle" x="716" y="-268.3" font-family="Helvetica,sans-Serif" font-size="14.00">samples = 4298</text>
<text text-anchor="middle" x="716" y="-253.3" font-family="Helvetica,sans-Serif" font-size="14.00">value = [1401, 2897]</text>
<text text-anchor="middle" x="716" y="-238.3" font-family="Helvetica,sans-Serif" font-size="14.00">class = Low Expr</text>
</g>
<!-- 0&#45;&gt;8 -->
<g id="edge8" class="edge"><title>0&#45;&gt;8</title>
<path fill="none" stroke="black" d="M633.647,-349.285C646.879,-335.823 662.285,-320.149 676.169,-306.023"/>
<polygon fill="black" stroke="black" points="678.758,-308.383 683.272,-298.798 673.766,-303.476 678.758,-308.383"/>
<text text-anchor="middle" x="683.487" y="-320.097" font-family="Helvetica,sans-Serif" font-size="14.00">False</text>
</g>
<!-- 2 -->
<g id="node3" class="node"><title>2</title>
<path fill="#e58139" fill-opacity="0.278431" stroke="black" d="M311,-179.5C311,-179.5 145,-179.5 145,-179.5 139,-179.5 133,-173.5 133,-167.5 133,-167.5 133,-123.5 133,-123.5 133,-117.5 139,-111.5 145,-111.5 145,-111.5 311,-111.5 311,-111.5 317,-111.5 323,-117.5 323,-123.5 323,-123.5 323,-167.5 323,-167.5 323,-173.5 317,-179.5 311,-179.5"/>
<text text-anchor="middle" x="228" y="-164.3" font-family="Helvetica,sans-Serif" font-size="14.00">% Polar Residues &lt;= 0.3474</text>
<text text-anchor="middle" x="228" y="-149.3" font-family="Helvetica,sans-Serif" font-size="14.00">samples = 14918</text>
<text text-anchor="middle" x="228" y="-134.3" font-family="Helvetica,sans-Serif" font-size="14.00">value = [8671, 6247]</text>
<text text-anchor="middle" x="228" y="-119.3" font-family="Helvetica,sans-Serif" font-size="14.00">class = High Expr</text>
</g>
<!-- 1&#45;&gt;2 -->
<g id="edge2" class="edge"><title>1&#45;&gt;2</title>
<path fill="none" stroke="black" d="M400.806,-224.866C371.669,-211.652 339.148,-196.904 310.247,-183.798"/>
<polygon fill="black" stroke="black" points="311.553,-180.547 301,-179.605 308.662,-186.922 311.553,-180.547"/>
</g>
<!-- 5 -->
<g id="node6" class="node"><title>5</title>
<path fill="#399de5" fill-opacity="0.431373" stroke="black" d="M547,-179.5C547,-179.5 425,-179.5 425,-179.5 419,-179.5 413,-173.5 413,-167.5 413,-167.5 413,-123.5 413,-123.5 413,-117.5 419,-111.5 425,-111.5 425,-111.5 547,-111.5 547,-111.5 553,-111.5 559,-117.5 559,-123.5 559,-123.5 559,-167.5 559,-167.5 559,-173.5 553,-179.5 547,-179.5"/>
<text text-anchor="middle" x="486" y="-164.3" font-family="Helvetica,sans-Serif" font-size="14.00">% Leucine &lt;= 0.1043</text>
<text text-anchor="middle" x="486" y="-149.3" font-family="Helvetica,sans-Serif" font-size="14.00">samples = 3387</text>
<text text-anchor="middle" x="486" y="-134.3" font-family="Helvetica,sans-Serif" font-size="14.00">value = [1229, 2158]</text>
<text text-anchor="middle" x="486" y="-119.3" font-family="Helvetica,sans-Serif" font-size="14.00">class = Low Expr</text>
</g>
<!-- 1&#45;&gt;5 -->
<g id="edge5" class="edge"><title>1&#45;&gt;5</title>
<path fill="none" stroke="black" d="M486,-222.907C486,-212.204 486,-200.615 486,-189.776"/>
<polygon fill="black" stroke="black" points="489.5,-189.667 486,-179.667 482.5,-189.667 489.5,-189.667"/>
</g>
<!-- 3 -->
<g id="node4" class="node"><title>3</title>
<path fill="#e58139" fill-opacity="0.047059" stroke="black" d="M128,-53C128,-53 12,-53 12,-53 6,-53 0,-47 0,-41 0,-41 0,-12 0,-12 0,-6 6,-0 12,-0 12,-0 128,-0 128,-0 134,-0 140,-6 140,-12 140,-12 140,-41 140,-41 140,-47 134,-53 128,-53"/>
<text text-anchor="middle" x="70" y="-37.8" font-family="Helvetica,sans-Serif" font-size="14.00">samples = 7629</text>
<text text-anchor="middle" x="70" y="-22.8" font-family="Helvetica,sans-Serif" font-size="14.00">value = [3904, 3725]</text>
<text text-anchor="middle" x="70" y="-7.8" font-family="Helvetica,sans-Serif" font-size="14.00">class = High Expr</text>
</g>
<!-- 2&#45;&gt;3 -->
<g id="edge3" class="edge"><title>2&#45;&gt;3</title>
<path fill="none" stroke="black" d="M183.146,-111.285C161.061,-94.9311 134.567,-75.312 112.77,-59.1711"/>
<polygon fill="black" stroke="black" points="114.784,-56.3077 104.665,-53.1694 110.618,-61.9332 114.784,-56.3077"/>
</g>
<!-- 4 -->
<g id="node5" class="node"><title>4</title>
<path fill="#e58139" fill-opacity="0.470588" stroke="black" d="M286,-53C286,-53 170,-53 170,-53 164,-53 158,-47 158,-41 158,-41 158,-12 158,-12 158,-6 164,-0 170,-0 170,-0 286,-0 286,-0 292,-0 298,-6 298,-12 298,-12 298,-41 298,-41 298,-47 292,-53 286,-53"/>
<text text-anchor="middle" x="228" y="-37.8" font-family="Helvetica,sans-Serif" font-size="14.00">samples = 7289</text>
<text text-anchor="middle" x="228" y="-22.8" font-family="Helvetica,sans-Serif" font-size="14.00">value = [4767, 2522]</text>
<text text-anchor="middle" x="228" y="-7.8" font-family="Helvetica,sans-Serif" font-size="14.00">class = High Expr</text>
</g>
<!-- 2&#45;&gt;4 -->
<g id="edge4" class="edge"><title>2&#45;&gt;4</title>
<path fill="none" stroke="black" d="M228,-111.285C228,-96.3549 228,-78.7032 228,-63.4613"/>
<polygon fill="black" stroke="black" points="231.5,-63.3572 228,-53.3572 224.5,-63.3573 231.5,-63.3572"/>
</g>
<!-- 6 -->
<g id="node7" class="node"><title>6</title>
<path fill="#e58139" fill-opacity="0.015686" stroke="black" d="M429.5,-53C429.5,-53 328.5,-53 328.5,-53 322.5,-53 316.5,-47 316.5,-41 316.5,-41 316.5,-12 316.5,-12 316.5,-6 322.5,-0 328.5,-0 328.5,-0 429.5,-0 429.5,-0 435.5,-0 441.5,-6 441.5,-12 441.5,-12 441.5,-41 441.5,-41 441.5,-47 435.5,-53 429.5,-53"/>
<text text-anchor="middle" x="379" y="-37.8" font-family="Helvetica,sans-Serif" font-size="14.00">samples = 1130</text>
<text text-anchor="middle" x="379" y="-22.8" font-family="Helvetica,sans-Serif" font-size="14.00">value = [569, 561]</text>
<text text-anchor="middle" x="379" y="-7.8" font-family="Helvetica,sans-Serif" font-size="14.00">class = High Expr</text>
</g>
<!-- 5&#45;&gt;6 -->
<g id="edge6" class="edge"><title>5&#45;&gt;6</title>
<path fill="none" stroke="black" d="M455.624,-111.285C441.182,-95.4935 423.956,-76.6574 409.498,-60.8483"/>
<polygon fill="black" stroke="black" points="411.979,-58.3746 402.647,-53.3572 406.813,-63.0987 411.979,-58.3746"/>
</g>
<!-- 7 -->
<g id="node8" class="node"><title>7</title>
<path fill="#399de5" fill-opacity="0.588235" stroke="black" d="M580,-53C580,-53 472,-53 472,-53 466,-53 460,-47 460,-41 460,-41 460,-12 460,-12 460,-6 466,-0 472,-0 472,-0 580,-0 580,-0 586,-0 592,-6 592,-12 592,-12 592,-41 592,-41 592,-47 586,-53 580,-53"/>
<text text-anchor="middle" x="526" y="-37.8" font-family="Helvetica,sans-Serif" font-size="14.00">samples = 2257</text>
<text text-anchor="middle" x="526" y="-22.8" font-family="Helvetica,sans-Serif" font-size="14.00">value = [660, 1597]</text>
<text text-anchor="middle" x="526" y="-7.8" font-family="Helvetica,sans-Serif" font-size="14.00">class = Low Expr</text>
</g>
<!-- 5&#45;&gt;7 -->
<g id="edge7" class="edge"><title>5&#45;&gt;7</title>
<path fill="none" stroke="black" d="M497.355,-111.285C502.509,-96.2113 508.611,-78.3635 513.856,-63.0223"/>
<polygon fill="black" stroke="black" points="517.237,-63.9518 517.16,-53.3572 510.613,-61.6873 517.237,-63.9518"/>
</g>
<!-- 9 -->
<g id="node10" class="node"><title>9</title>
<path fill="#399de5" fill-opacity="0.592157" stroke="black" d="M777,-179.5C777,-179.5 655,-179.5 655,-179.5 649,-179.5 643,-173.5 643,-167.5 643,-167.5 643,-123.5 643,-123.5 643,-117.5 649,-111.5 655,-111.5 655,-111.5 777,-111.5 777,-111.5 783,-111.5 789,-117.5 789,-123.5 789,-123.5 789,-167.5 789,-167.5 789,-173.5 783,-179.5 777,-179.5"/>
<text text-anchor="middle" x="716" y="-164.3" font-family="Helvetica,sans-Serif" font-size="14.00">% Leucine &lt;= 0.1166</text>
<text text-anchor="middle" x="716" y="-149.3" font-family="Helvetica,sans-Serif" font-size="14.00">samples = 3438</text>
<text text-anchor="middle" x="716" y="-134.3" font-family="Helvetica,sans-Serif" font-size="14.00">value = [993, 2445]</text>
<text text-anchor="middle" x="716" y="-119.3" font-family="Helvetica,sans-Serif" font-size="14.00">class = Low Expr</text>
</g>
<!-- 8&#45;&gt;9 -->
<g id="edge9" class="edge"><title>8&#45;&gt;9</title>
<path fill="none" stroke="black" d="M716,-230.285C716,-217.811 716,-203.438 716,-190.157"/>
<polygon fill="black" stroke="black" points="719.5,-189.798 716,-179.798 712.5,-189.798 719.5,-189.798"/>
</g>
<!-- 12 -->
<g id="node13" class="node"><title>12</title>
<path fill="#399de5" fill-opacity="0.098039" stroke="black" d="M1039,-187C1039,-187 893,-187 893,-187 887,-187 881,-181 881,-175 881,-175 881,-116 881,-116 881,-110 887,-104 893,-104 893,-104 1039,-104 1039,-104 1045,-104 1051,-110 1051,-116 1051,-116 1051,-175 1051,-175 1051,-181 1045,-187 1039,-187"/>
<text text-anchor="middle" x="966" y="-171.8" font-family="Helvetica,sans-Serif" font-size="14.00">Grand Average Value</text>
<text text-anchor="middle" x="966" y="-156.8" font-family="Helvetica,sans-Serif" font-size="14.00">of Hydropathy &lt;= &#45;0.7505</text>
<text text-anchor="middle" x="966" y="-141.8" font-family="Helvetica,sans-Serif" font-size="14.00">samples = 860</text>
<text text-anchor="middle" x="966" y="-126.8" font-family="Helvetica,sans-Serif" font-size="14.00">value = [408, 452]</text>
<text text-anchor="middle" x="966" y="-111.8" font-family="Helvetica,sans-Serif" font-size="14.00">class = Low Expr</text>
</g>
<!-- 8&#45;&gt;12 -->
<g id="edge12" class="edge"><title>8&#45;&gt;12</title>
<path fill="none" stroke="black" d="M786.638,-230.442C813.086,-218.064 843.568,-203.798 871.811,-190.58"/>
<polygon fill="black" stroke="black" points="873.321,-193.738 880.895,-186.329 870.354,-187.398 873.321,-193.738"/>
</g>
<!-- 10 -->
<g id="node11" class="node"><title>10</title>
<path fill="#399de5" fill-opacity="0.505882" stroke="black" d="M730,-53C730,-53 622,-53 622,-53 616,-53 610,-47 610,-41 610,-41 610,-12 610,-12 610,-6 616,-0 622,-0 622,-0 730,-0 730,-0 736,-0 742,-6 742,-12 742,-12 742,-41 742,-41 742,-47 736,-53 730,-53"/>
<text text-anchor="middle" x="676" y="-37.8" font-family="Helvetica,sans-Serif" font-size="14.00">samples = 2288</text>
<text text-anchor="middle" x="676" y="-22.8" font-family="Helvetica,sans-Serif" font-size="14.00">value = [756, 1532]</text>
<text text-anchor="middle" x="676" y="-7.8" font-family="Helvetica,sans-Serif" font-size="14.00">class = Low Expr</text>
</g>
<!-- 9&#45;&gt;10 -->
<g id="edge10" class="edge"><title>9&#45;&gt;10</title>
<path fill="none" stroke="black" d="M704.645,-111.285C699.491,-96.2113 693.389,-78.3635 688.144,-63.0223"/>
<polygon fill="black" stroke="black" points="691.387,-61.6873 684.84,-53.3572 684.763,-63.9518 691.387,-61.6873"/>
</g>
<!-- 11 -->
<g id="node12" class="node"><title>11</title>
<path fill="#399de5" fill-opacity="0.741176" stroke="black" d="M873.5,-53C873.5,-53 772.5,-53 772.5,-53 766.5,-53 760.5,-47 760.5,-41 760.5,-41 760.5,-12 760.5,-12 760.5,-6 766.5,-0 772.5,-0 772.5,-0 873.5,-0 873.5,-0 879.5,-0 885.5,-6 885.5,-12 885.5,-12 885.5,-41 885.5,-41 885.5,-47 879.5,-53 873.5,-53"/>
<text text-anchor="middle" x="823" y="-37.8" font-family="Helvetica,sans-Serif" font-size="14.00">samples = 1150</text>
<text text-anchor="middle" x="823" y="-22.8" font-family="Helvetica,sans-Serif" font-size="14.00">value = [237, 913]</text>
<text text-anchor="middle" x="823" y="-7.8" font-family="Helvetica,sans-Serif" font-size="14.00">class = Low Expr</text>
</g>
<!-- 9&#45;&gt;11 -->
<g id="edge11" class="edge"><title>9&#45;&gt;11</title>
<path fill="none" stroke="black" d="M746.376,-111.285C760.818,-95.4935 778.044,-76.6574 792.502,-60.8483"/>
<polygon fill="black" stroke="black" points="795.187,-63.0987 799.353,-53.3572 790.021,-58.3746 795.187,-63.0987"/>
</g>
<!-- 13 -->
<g id="node14" class="node"><title>13</title>
<path fill="#e58139" fill-opacity="0.270588" stroke="black" d="M1016.5,-53C1016.5,-53 915.5,-53 915.5,-53 909.5,-53 903.5,-47 903.5,-41 903.5,-41 903.5,-12 903.5,-12 903.5,-6 909.5,-0 915.5,-0 915.5,-0 1016.5,-0 1016.5,-0 1022.5,-0 1028.5,-6 1028.5,-12 1028.5,-12 1028.5,-41 1028.5,-41 1028.5,-47 1022.5,-53 1016.5,-53"/>
<text text-anchor="middle" x="966" y="-37.8" font-family="Helvetica,sans-Serif" font-size="14.00">samples = 363</text>
<text text-anchor="middle" x="966" y="-22.8" font-family="Helvetica,sans-Serif" font-size="14.00">value = [210, 153]</text>
<text text-anchor="middle" x="966" y="-7.8" font-family="Helvetica,sans-Serif" font-size="14.00">class = High Expr</text>
</g>
<!-- 12&#45;&gt;13 -->
<g id="edge13" class="edge"><title>12&#45;&gt;13</title>
<path fill="none" stroke="black" d="M966,-103.907C966,-90.7073 966,-76.1609 966,-63.3342"/>
<polygon fill="black" stroke="black" points="969.5,-63.0315 966,-53.0316 962.5,-63.0316 969.5,-63.0315"/>
</g>
<!-- 14 -->
<g id="node15" class="node"><title>14</title>
<path fill="#399de5" fill-opacity="0.337255" stroke="black" d="M1159.5,-53C1159.5,-53 1058.5,-53 1058.5,-53 1052.5,-53 1046.5,-47 1046.5,-41 1046.5,-41 1046.5,-12 1046.5,-12 1046.5,-6 1052.5,-0 1058.5,-0 1058.5,-0 1159.5,-0 1159.5,-0 1165.5,-0 1171.5,-6 1171.5,-12 1171.5,-12 1171.5,-41 1171.5,-41 1171.5,-47 1165.5,-53 1159.5,-53"/>
<text text-anchor="middle" x="1109" y="-37.8" font-family="Helvetica,sans-Serif" font-size="14.00">samples = 497</text>
<text text-anchor="middle" x="1109" y="-22.8" font-family="Helvetica,sans-Serif" font-size="14.00">value = [198, 299]</text>
<text text-anchor="middle" x="1109" y="-7.8" font-family="Helvetica,sans-Serif" font-size="14.00">class = Low Expr</text>
</g>
<!-- 12&#45;&gt;14 -->
<g id="edge14" class="edge"><title>12&#45;&gt;14</title>
<path fill="none" stroke="black" d="M1015.61,-103.907C1033.36,-89.3873 1053.1,-73.2382 1069.84,-59.5409"/>
<polygon fill="black" stroke="black" points="1072.27,-62.0728 1077.79,-53.0316 1067.84,-56.6551 1072.27,-62.0728"/>
</g>
</g>
</svg>
